<svg width="87" height="86" viewBox="0 0 87 86" fill="none" xmlns="http://www.w3.org/2000/svg">
<path d="M44.0256 38.6041C43.9632 38.5244 43.8835 38.4599 43.7925 38.4155C43.7014 38.3712 43.6015 38.3481 43.5002 38.3481C43.3989 38.3481 43.299 38.3712 43.208 38.4155C43.1169 38.4599 43.0372 38.5244 42.9748 38.6041L33.6337 50.4222C33.5567 50.5206 33.5089 50.6386 33.4959 50.7628C33.4828 50.887 33.5049 51.0124 33.5597 51.1247C33.6145 51.2369 33.6998 51.3314 33.8058 51.3975C33.9118 51.4635 34.0343 51.4984 34.1592 51.4981H40.3226V71.7148C40.3226 72.0818 40.6228 72.382 40.9898 72.382H45.9939C46.3609 72.382 46.6612 72.0818 46.6612 71.7148V51.5065H52.8413C53.4001 51.5065 53.7086 50.8643 53.3667 50.4306L44.0256 38.6041Z" fill="black"/>
<path d="M68.4715 30.9062C64.6517 20.8312 54.9187 13.667 43.5176 13.667C32.1165 13.667 22.3835 20.8229 18.5637 30.8979C11.4161 32.7744 6.13672 39.2882 6.13672 47.0279C6.13672 56.2438 13.6012 63.7083 22.8088 63.7083H26.1533C26.5202 63.7083 26.8205 63.4081 26.8205 63.0411V58.037C26.8205 57.67 26.5202 57.3698 26.1533 57.3698H22.8088C19.9982 57.3698 17.3543 56.2522 15.386 54.2255C13.4261 52.2072 12.3835 49.4883 12.4753 46.6693C12.5504 44.4674 13.301 42.3991 14.6604 40.656C16.0532 38.8795 18.0049 37.5868 20.1733 37.0113L23.3343 36.1856L24.4936 33.1331C25.2108 31.2315 26.2116 29.455 27.471 27.8454C28.7143 26.25 30.187 24.8475 31.8413 23.6836C35.2691 21.2733 39.3058 19.9972 43.5176 19.9972C47.7294 19.9972 51.7661 21.2733 55.1939 23.6836C56.8536 24.8512 58.3215 26.2524 59.5642 27.8454C60.8236 29.455 61.8244 31.2398 62.5416 33.1331L63.6926 36.1773L66.8452 37.0113C71.3656 38.2289 74.5266 42.3407 74.5266 47.0279C74.5266 49.7885 73.4507 52.3906 71.499 54.3423C70.542 55.305 69.4034 56.0682 68.1493 56.5879C66.8952 57.1076 65.5505 57.3733 64.193 57.3698H60.8486C60.4816 57.3698 60.1814 57.67 60.1814 58.037V63.0411C60.1814 63.4081 60.4816 63.7083 60.8486 63.7083H64.193C73.4006 63.7083 80.8651 56.2438 80.8651 47.0279C80.8651 39.2965 75.6024 32.7911 68.4715 30.9062Z" fill="black"/>
</svg>
