<svg width="34" height="30" viewBox="0 0 34 30" fill="none" xmlns="http://www.w3.org/2000/svg">
<path d="M17.4482 21.343L17.5643 21.2252C17.913 20.8142 17.8742 20.2308 17.4482 19.858L13.0972 16.051L23.8008 16.0506L23.9637 16.0409C24.5493 15.9715 25.0008 15.5321 25.0008 15.0006L24.9898 14.858C24.9104 14.3455 24.4083 13.9506 23.8008 13.9506L13.094 13.951L17.4491 10.142L17.5654 10.0242C17.9141 9.61322 17.8754 9.02988 17.4494 8.65703C16.981 8.24692 16.2211 8.24679 15.7525 8.65675L9.34997 14.2567L9.23374 14.3745C8.88506 14.7855 8.92373 15.369 9.34981 15.7419L15.7512 21.343L15.8858 21.4446C16.3555 21.7497 17.0221 21.7158 17.4482 21.343ZM17 1C8.16344 1 1 7.26801 1 15C1 22.7319 8.16344 29 17 29C25.8365 29 33 22.7319 33 15C33 7.26801 25.8365 1 17 1ZM17 26.9C9.48893 26.9 3.4 21.5722 3.4 15C3.4 8.42781 9.48893 3.1 17 3.1C24.511 3.1 30.6 8.42781 30.6 15C30.6 21.5722 24.511 26.9 17 26.9Z" fill="white" stroke="white" stroke-width="0.5"/>
</svg>
