<svg width="30" height="30" viewBox="0 0 30 30" fill="none" xmlns="http://www.w3.org/2000/svg">
<path d="M15.3921 21.343L15.4938 21.2252C15.7988 20.8142 15.765 20.2308 15.3921 19.858L11.5851 16.051L20.9507 16.0506L21.0932 16.0409C21.6056 15.9715 22.0007 15.5321 22.0007 15.0006L21.991 14.858C21.9216 14.3455 21.4823 13.9506 20.9507 13.9506L11.5823 13.951L15.393 10.142L15.4948 10.0242C15.7998 9.61322 15.7659 9.02988 15.3933 8.65703C14.9833 8.24692 14.3185 8.24679 13.9084 8.65675L8.30622 14.2567L8.20453 14.3745C7.89942 14.7855 7.93326 15.369 8.30608 15.7419L13.9073 21.343L14.025 21.4446C14.4361 21.7497 15.0193 21.7158 15.3921 21.343ZM15 1C7.26801 1 1 7.26801 1 15C1 22.7319 7.26801 29 15 29C22.7319 29 29 22.7319 29 15C29 7.26801 22.7319 1 15 1ZM15 26.9C8.42781 26.9 3.1 21.5722 3.1 15C3.1 8.42781 8.42781 3.1 15 3.1C21.5722 3.1 26.9 8.42781 26.9 15C26.9 21.5722 21.5722 26.9 15 26.9Z" fill="#00B3FF" stroke="#00B3FF" stroke-width="0.5"/>
</svg>
