<svg width="26" height="26" viewBox="0 0 26 26" fill="none" xmlns="http://www.w3.org/2000/svg">
<path d="M13.3361 18.4368L13.4232 18.3359C13.6847 17.9836 13.6557 17.4836 13.3361 17.164L10.0729 13.9008L18.1006 13.9005L18.2228 13.8922C18.662 13.8327 19.0006 13.4561 19.0006 13.0005L18.9923 12.8783C18.9328 12.439 18.5562 12.1005 18.1006 12.1005L10.0705 12.1008L13.3368 8.83596L13.4241 8.73504C13.6856 8.38276 13.6565 7.88276 13.3371 7.56317C12.9857 7.21164 12.4158 7.21154 12.0644 7.56293L7.26248 12.3629L7.17531 12.4638C6.91379 12.8162 6.9428 13.3163 7.26236 13.6359L12.0634 18.4368L12.1643 18.524C12.5166 18.7854 13.0166 18.7564 13.3361 18.4368ZM13 1C6.37258 1 1 6.37258 1 13C1 19.6274 6.37258 25 13 25C19.6274 25 25 19.6274 25 13C25 6.37258 19.6274 1 13 1ZM13 23.2C7.3667 23.2 2.8 18.6333 2.8 13C2.8 7.3667 7.3667 2.8 13 2.8C18.6333 2.8 23.2 7.3667 23.2 13C23.2 18.6333 18.6333 23.2 13 23.2Z" fill="#00B3FF" stroke="#00B3FF" stroke-width="0.5"/>
</svg>
