<svg width="34" height="34" viewBox="0 0 34 34" fill="none" xmlns="http://www.w3.org/2000/svg">
<path d="M17.4482 24.2491L17.5643 24.1146C17.913 23.6448 17.8742 22.9781 17.4482 22.552L13.0972 18.2011L23.8008 18.2006L23.9637 18.1896C24.5493 18.1102 25.0008 17.6082 25.0008 17.0006L24.9898 16.8378C24.9104 16.252 24.4083 15.8006 23.8008 15.8006L13.094 15.8011L17.4491 11.448L17.5654 11.3134C17.9141 10.8437 17.8754 10.177 17.4494 9.7509C16.981 9.28219 16.2211 9.28205 15.7525 9.75058L9.34997 16.1506L9.23374 16.2851C8.88506 16.7549 8.92373 17.4218 9.34981 17.8478L15.7512 24.2491L15.8858 24.3653C16.3555 24.7139 17.0221 24.6752 17.4482 24.2491ZM17 1C8.16344 1 1 8.16344 1 17C1 25.8365 8.16344 33 17 33C25.8365 33 33 25.8365 33 17C33 8.16344 25.8365 1 17 1ZM17 30.6C9.48893 30.6 3.4 24.511 3.4 17C3.4 9.48893 9.48893 3.4 17 3.4C24.511 3.4 30.6 9.48893 30.6 17C30.6 24.511 24.511 30.6 17 30.6Z" fill="white" stroke="white" stroke-width="0.5"/>
</svg>
