<svg width="14" height="14" viewBox="0 0 14 14" fill="none" xmlns="http://www.w3.org/2000/svg">
<path d="M7.00001 4.29168C6.85635 4.29168 6.71858 4.34875 6.617 4.45033C6.51541 4.55191 6.45835 4.68968 6.45835 4.83334V7.00001C6.45835 7.14367 6.51541 7.28144 6.617 7.38303C6.71858 7.48461 6.85635 7.54168 7.00001 7.54168C7.14367 7.54168 7.28145 7.48461 7.38303 7.38303C7.48461 7.28144 7.54168 7.14367 7.54168 7.00001V4.83334C7.54168 4.68968 7.48461 4.55191 7.38303 4.45033C7.28145 4.34875 7.14367 4.29168 7.00001 4.29168ZM7.49835 8.96084C7.48649 8.92633 7.4701 8.89354 7.4496 8.86334L7.3846 8.78209C7.30843 8.70693 7.2117 8.65602 7.10662 8.63577C7.00154 8.61553 6.89282 8.62686 6.79418 8.66834C6.72854 8.69577 6.66808 8.73425 6.61543 8.78209C6.56523 8.83271 6.52551 8.89273 6.49855 8.95873C6.4716 9.02472 6.45793 9.09539 6.45835 9.16668C6.4592 9.23746 6.47392 9.30739 6.50168 9.37251C6.52601 9.43973 6.56482 9.50078 6.61537 9.55132C6.66592 9.60187 6.72696 9.64068 6.79418 9.66501C6.85902 9.69367 6.92912 9.70847 7.00001 9.70847C7.0709 9.70847 7.14101 9.69367 7.20585 9.66501C7.27306 9.64068 7.33411 9.60187 7.38466 9.55132C7.43521 9.50078 7.47402 9.43973 7.49835 9.37251C7.5261 9.30739 7.54082 9.23746 7.54168 9.16668C7.54434 9.13061 7.54434 9.09441 7.54168 9.05834C7.53235 9.0238 7.51774 8.99091 7.49835 8.96084V8.96084ZM7.00001 1.58334C5.9287 1.58334 4.88144 1.90103 3.99067 2.49622C3.09991 3.09141 2.40564 3.93738 1.99567 4.92714C1.58569 5.91691 1.47842 7.00602 1.68743 8.05675C1.89643 9.10748 2.41232 10.0726 3.16985 10.8302C3.92739 11.5877 4.89254 12.1036 5.94327 12.3126C6.994 12.5216 8.08312 12.4143 9.07288 12.0044C10.0626 11.5944 10.9086 10.9001 11.5038 10.0093C12.099 9.11858 12.4167 8.07133 12.4167 7.00001C12.4167 6.28868 12.2766 5.58432 12.0044 4.92714C11.7321 4.26996 11.3332 3.67283 10.8302 3.16985C10.3272 2.66686 9.73006 2.26788 9.07288 1.99566C8.4157 1.72345 7.71134 1.58334 7.00001 1.58334V1.58334ZM7.00001 11.3333C6.14296 11.3333 5.30515 11.0792 4.59254 10.603C3.87993 10.1269 3.32451 9.45012 2.99653 8.65831C2.66856 7.86649 2.58274 6.9952 2.74994 6.15462C2.91715 5.31403 3.32986 4.54191 3.93588 3.93588C4.54191 3.32985 5.31404 2.91714 6.15462 2.74994C6.99521 2.58274 7.86649 2.66855 8.65831 2.99653C9.45012 3.32451 10.1269 3.87993 10.603 4.59254C11.0792 5.30515 11.3333 6.14296 11.3333 7.00001C11.3333 8.14928 10.8768 9.25148 10.0641 10.0641C9.25149 10.8768 8.14928 11.3333 7.00001 11.3333V11.3333Z" fill="#111111"/>
</svg>
