<svg width="23" height="28" viewBox="0 0 23 28" fill="none" xmlns="http://www.w3.org/2000/svg">
<path d="M15.6855 19.5999H7.28566C6.91436 19.5999 6.55827 19.7473 6.29572 20.0099C6.03318 20.2724 5.88568 20.6285 5.88568 20.9998C5.88568 21.3711 6.03318 21.7272 6.29572 21.9898C6.55827 22.2523 6.91436 22.3998 7.28566 22.3998H15.6855C16.0568 22.3998 16.4129 22.2523 16.6754 21.9898C16.938 21.7272 17.0855 21.3711 17.0855 20.9998C17.0855 20.6285 16.938 20.2724 16.6754 20.0099C16.4129 19.7473 16.0568 19.5999 15.6855 19.5999Z" fill="#231F20"/>
<path d="M7.28566 16.7999H11.4856C11.8569 16.7999 12.213 16.6525 12.4755 16.3899C12.7381 16.1274 12.8856 15.7713 12.8856 15.4C12.8856 15.0287 12.7381 14.6726 12.4755 14.41C12.213 14.1475 11.8569 14 11.4856 14H7.28566C6.91436 14 6.55827 14.1475 6.29572 14.41C6.03318 14.6726 5.88568 15.0287 5.88568 15.4C5.88568 15.7713 6.03318 16.1274 6.29572 16.3899C6.55827 16.6525 6.91436 16.7999 7.28566 16.7999Z" fill="#231F20"/>
<path d="M22.3214 8.86209L14.7055 0.462244C14.5746 0.317217 14.4148 0.20119 14.2364 0.121623C14.058 0.0420572 13.8649 0.000713715 13.6695 0.000251962H3.8697C3.40456 -0.00529627 2.94288 0.0808346 2.51103 0.253726C2.07917 0.426618 1.68561 0.682884 1.3528 1.00789C1.02 1.3329 0.75447 1.72027 0.571387 2.14791C0.388304 2.57554 0.291249 3.03505 0.285767 3.50019V24.4998C0.291249 24.965 0.388304 25.4245 0.571387 25.8521C0.75447 26.2797 1.02 26.6671 1.3528 26.9921C1.68561 27.3171 2.07917 27.5734 2.51103 27.7463C2.94288 27.9192 3.40456 28.0053 3.8697 27.9997H19.1014C19.5666 28.0053 20.0282 27.9192 20.4601 27.7463C20.892 27.5734 21.2855 27.3171 21.6183 26.9921C21.9511 26.6671 22.2167 26.2797 22.3997 25.8521C22.5828 25.4245 22.6799 24.965 22.6854 24.4998V9.80008C22.6845 9.45311 22.5547 9.11884 22.3214 8.86209ZM14.2855 4.20018L18.1214 8.4001H15.3215C15.1749 8.39125 15.0315 8.35329 14.8997 8.28843C14.768 8.22357 14.6504 8.13311 14.554 8.02234C14.4576 7.91156 14.3841 7.78269 14.338 7.64324C14.292 7.50379 14.2741 7.35655 14.2855 7.21012V4.20018ZM19.1014 25.1998H3.8697C3.77223 25.2055 3.67459 25.1919 3.58239 25.1597C3.49019 25.1276 3.40524 25.0776 3.33241 25.0125C3.25958 24.9475 3.20029 24.8687 3.15796 24.7808C3.11563 24.6928 3.09108 24.5973 3.08572 24.4998V3.50019C3.09108 3.4027 3.11563 3.30722 3.15796 3.21924C3.20029 3.13125 3.25958 3.05249 3.33241 2.98746C3.40524 2.92243 3.49019 2.87241 3.58239 2.84028C3.67459 2.80815 3.77223 2.79453 3.8697 2.8002H11.4856V7.21012C11.463 8.24138 11.8492 9.2397 12.56 9.98721C13.2708 10.7347 14.2484 11.1707 15.2795 11.2001H19.8854V24.4998C19.8801 24.5973 19.8555 24.6928 19.8132 24.7808C19.7708 24.8687 19.7116 24.9475 19.6387 25.0125C19.5659 25.0776 19.4809 25.1276 19.3887 25.1597C19.2965 25.1919 19.1989 25.2055 19.1014 25.1998Z" fill="#231F20"/>
</svg>
