<svg width="33" height="41" viewBox="0 0 33 41" fill="none" xmlns="http://www.w3.org/2000/svg">
<path d="M22.4996 28.4999H10.4998C9.96942 28.4999 9.46072 28.7106 9.08565 29.0857C8.71059 29.4607 8.49988 29.9694 8.49988 30.4998C8.49988 31.0303 8.71059 31.539 9.08565 31.914C9.46072 32.2891 9.96942 32.4998 10.4998 32.4998H22.4996C23.03 32.4998 23.5387 32.2891 23.9138 31.914C24.2889 31.539 24.4996 31.0303 24.4996 30.4998C24.4996 29.9694 24.2889 29.4607 23.9138 29.0857C23.5387 28.7106 23.03 28.4999 22.4996 28.4999Z" fill="#231F20"/>
<path d="M10.4998 24.4999H16.4997C17.0302 24.4999 17.5389 24.2892 17.9139 23.9142C18.289 23.5391 18.4997 23.0304 18.4997 22.5C18.4997 21.9695 18.289 21.4608 17.9139 21.0858C17.5389 20.7107 17.0302 20.5 16.4997 20.5H10.4998C9.96942 20.5 9.46072 20.7107 9.08565 21.0858C8.71059 21.4608 8.49988 21.9695 8.49988 22.5C8.49988 23.0304 8.71059 23.5391 9.08565 23.9142C9.46072 24.2892 9.96942 24.4999 10.4998 24.4999Z" fill="#231F20"/>
<path d="M31.9794 13.1601L21.0996 1.16035C20.9126 0.953167 20.6844 0.787414 20.4295 0.673748C20.1746 0.560082 19.8987 0.50102 19.6197 0.50036H5.61991C4.95542 0.492434 4.29588 0.615478 3.67894 0.862466C3.06201 1.10945 2.49977 1.47555 2.02434 1.93984C1.5489 2.40414 1.16958 2.95754 0.908029 3.56844C0.646482 4.17934 0.507833 4.83578 0.5 5.50027V35.4997C0.507833 36.1642 0.646482 36.8207 0.908029 37.4316C1.16958 38.0425 1.5489 38.5959 2.02434 39.0602C2.49977 39.5245 3.06201 39.8905 3.67894 40.1375C4.29588 40.3845 4.95542 40.5076 5.61991 40.4996H27.3795C28.044 40.5076 28.7035 40.3845 29.3205 40.1375C29.9374 39.8905 30.4996 39.5245 30.9751 39.0602C31.4505 38.5959 31.8298 38.0425 32.0914 37.4316C32.3529 36.8207 32.4916 36.1642 32.4994 35.4997V14.5001C32.4981 14.0044 32.3128 13.5269 31.9794 13.1601ZM20.4996 6.50025L25.9795 12.5001H21.9796C21.7702 12.4875 21.5654 12.4333 21.3771 12.3406C21.1889 12.248 21.0209 12.1187 20.8832 11.9605C20.7454 11.8022 20.6405 11.6181 20.5747 11.4189C20.5088 11.2197 20.4833 11.0094 20.4996 10.8002V6.50025ZM27.3795 36.4997H5.61991C5.48066 36.5078 5.34118 36.4884 5.20947 36.4425C5.07775 36.3965 4.95639 36.3251 4.85234 36.2322C4.7483 36.1393 4.66361 36.0268 4.60314 35.9011C4.54266 35.7754 4.50759 35.639 4.49993 35.4997V5.50027C4.50759 5.361 4.54266 5.2246 4.60314 5.09891C4.66361 4.97322 4.7483 4.8607 4.85234 4.7678C4.95639 4.6749 5.07775 4.60345 5.20947 4.55754C5.34118 4.51164 5.48066 4.49218 5.61991 4.50029H16.4997V10.8002C16.4674 12.2734 17.0192 13.6996 18.0346 14.7674C19.05 15.8353 20.4466 16.4582 21.9196 16.5001H28.4995V35.4997C28.4918 35.639 28.4568 35.7754 28.3963 35.9011C28.3358 36.0268 28.2511 36.1393 28.1471 36.2322C28.043 36.3251 27.9217 36.3965 27.79 36.4425C27.6582 36.4884 27.5188 36.5078 27.3795 36.4997Z" fill="#231F20"/>
</svg>
