<svg width="36" height="32" viewBox="0 0 36 32" fill="none" xmlns="http://www.w3.org/2000/svg">
<path d="M12.4445 14.2222C13.8509 14.2222 15.2258 13.8052 16.3952 13.0238C17.5646 12.2424 18.4761 11.1318 19.0143 9.83242C19.5525 8.53303 19.6933 7.10322 19.419 5.7238C19.1446 4.34438 18.4673 3.07731 17.4728 2.0828C16.4783 1.08829 15.2112 0.411025 13.8318 0.136641C12.4524 -0.137743 11.0226 0.00308111 9.72318 0.541304C8.42379 1.07953 7.31319 1.99098 6.53181 3.16039C5.75043 4.32981 5.33337 5.70467 5.33337 7.11111C5.33337 8.9971 6.08258 10.8058 7.41617 12.1394C8.74976 13.473 10.5585 14.2222 12.4445 14.2222ZM12.4445 3.55556C13.1477 3.55556 13.8351 3.76409 14.4198 4.15478C15.0046 4.54547 15.4603 5.10077 15.7294 5.75046C15.9985 6.40015 16.0689 7.11506 15.9317 7.80477C15.7945 8.49448 15.4559 9.12802 14.9586 9.62527C14.4614 10.1225 13.8278 10.4612 13.1381 10.5983C12.4484 10.7355 11.7335 10.6651 11.0838 10.396C10.4341 10.1269 9.87884 9.67118 9.48815 9.08647C9.09746 8.50177 8.88893 7.81434 8.88893 7.11111C8.88893 6.16812 9.26353 5.26375 9.93033 4.59696C10.5971 3.93016 11.5015 3.55556 12.4445 3.55556Z" fill="#575757"/>
<path d="M26.6667 17.7777C27.7215 17.7777 28.7527 17.4649 29.6297 16.8789C30.5068 16.2929 31.1904 15.4599 31.5941 14.4854C31.9977 13.5108 32.1033 12.4385 31.8976 11.4039C31.6918 10.3693 31.1838 9.41903 30.4379 8.67315C29.6921 7.92727 28.7418 7.41932 27.7072 7.21353C26.6726 7.00775 25.6003 7.11336 24.6257 7.51703C23.6512 7.9207 22.8182 8.60429 22.2322 9.48135C21.6462 10.3584 21.3334 11.3896 21.3334 12.4444C21.3334 13.8589 21.8953 15.2154 22.8955 16.2156C23.8957 17.2158 25.2522 17.7777 26.6667 17.7777ZM26.6667 10.6666C27.0183 10.6666 27.362 10.7709 27.6544 10.9662C27.9467 11.1616 28.1746 11.4392 28.3092 11.7641C28.4437 12.0889 28.4789 12.4464 28.4103 12.7912C28.3417 13.1361 28.1724 13.4528 27.9238 13.7015C27.6752 13.9501 27.3584 14.1194 27.0135 14.188C26.6687 14.2566 26.3112 14.2214 25.9864 14.0868C25.6615 13.9523 25.3839 13.7244 25.1885 13.4321C24.9932 13.1397 24.8889 12.796 24.8889 12.4444C24.8889 11.9729 25.0762 11.5207 25.4096 11.1873C25.743 10.8539 26.1952 10.6666 26.6667 10.6666Z" fill="#575757"/>
<path d="M26.6667 19.5556C24.6966 19.5578 22.783 20.2144 21.2267 21.4223C19.4854 19.6878 17.2694 18.5078 14.8584 18.031C12.4473 17.5543 9.94901 17.8022 7.67862 18.7434C5.40824 19.6846 3.4674 21.2771 2.10087 23.3199C0.734346 25.3628 0.00332479 27.7645 0 30.2223C0 30.6938 0.187301 31.1459 0.520699 31.4793C0.854097 31.8127 1.30628 32 1.77778 32C2.24927 32 2.70146 31.8127 3.03486 31.4793C3.36825 31.1459 3.55556 30.6938 3.55556 30.2223C3.55556 27.8648 4.49206 25.6039 6.15905 23.9369C7.82604 22.2699 10.087 21.3334 12.4444 21.3334C14.8019 21.3334 17.0628 22.2699 18.7298 23.9369C20.3968 25.6039 21.3333 27.8648 21.3333 30.2223C21.3333 30.6938 21.5206 31.1459 21.854 31.4793C22.1874 31.8127 22.6396 32 23.1111 32C23.5826 32 24.0348 31.8127 24.3682 31.4793C24.7016 31.1459 24.8889 30.6938 24.8889 30.2223C24.8931 28.1395 24.367 26.0899 23.36 24.2667C24.1456 23.6459 25.0902 23.2588 26.0856 23.1497C27.0809 23.0406 28.0869 23.2139 28.9884 23.6498C29.8898 24.0857 30.6504 24.7665 31.183 25.6145C31.7156 26.4624 31.9987 27.4432 32 28.4445C32 28.916 32.1873 29.3682 32.5207 29.7016C32.8541 30.035 33.3063 30.2223 33.7778 30.2223C34.2493 30.2223 34.7015 30.035 35.0349 29.7016C35.3683 29.3682 35.5556 28.916 35.5556 28.4445C35.5556 26.087 34.619 23.8261 32.9521 22.1591C31.2851 20.4921 29.0241 19.5556 26.6667 19.5556Z" fill="#575757"/>
</svg>
