<svg width="36" height="41" viewBox="0 0 36 41" fill="none" xmlns="http://www.w3.org/2000/svg">
<path d="M14.0032 24.4966H22.0049V38.4995H14.0032V24.4966Z" fill="#231F20"/>
<path d="M34.8475 16.855L19.4243 1.09172C19.2383 0.904225 19.0171 0.755405 18.7733 0.653846C18.5296 0.552287 18.2681 0.5 18.004 0.5C17.7399 0.5 17.4785 0.552287 17.2347 0.653846C16.9909 0.755405 16.7697 0.904225 16.5837 1.09172L1.16047 16.875C0.78727 17.2513 0.492523 17.6979 0.293348 18.1889C0.0941734 18.68 -0.0054607 19.2057 0.000230777 19.7356V36.4992C-0.0013192 37.5232 0.389859 38.5089 1.09321 39.2531C1.79656 39.9974 2.75853 40.4437 3.78102 40.5H10.0023V22.4962C10.0023 21.9657 10.2131 21.4569 10.5882 21.0817C10.9634 20.7066 11.4722 20.4958 12.0028 20.4958H24.0053C24.5358 20.4958 25.0446 20.7066 25.4198 21.0817C25.7949 21.4569 26.0057 21.9657 26.0057 22.4962V40.5H32.227C33.2495 40.4437 34.2115 39.9974 34.9148 39.2531C35.6182 38.5089 36.0093 37.5232 36.0078 36.4992V19.7356C36.0094 18.6613 35.5933 17.6284 34.8475 16.855Z" fill="#231F20"/>
</svg>
