<svg width="40" height="36" viewBox="0 0 40 36" fill="none" xmlns="http://www.w3.org/2000/svg">
<path d="M34 8H28V5C28 3.67392 27.4732 2.40215 26.5355 1.46447C25.5979 0.526784 24.3261 0 23 0H17C15.6739 0 14.4021 0.526784 13.4645 1.46447C12.5268 2.40215 12 3.67392 12 5V8H6C4.4087 8 2.88258 8.63214 1.75736 9.75736C0.632141 10.8826 0 12.4087 0 14V30C0 31.5913 0.632141 33.1174 1.75736 34.2426C2.88258 35.3679 4.4087 36 6 36H34C35.5913 36 37.1174 35.3679 38.2426 34.2426C39.3679 33.1174 40 31.5913 40 30V14C40 12.4087 39.3679 10.8826 38.2426 9.75736C37.1174 8.63214 35.5913 8 34 8ZM16 5C16 4.73478 16.1054 4.48043 16.2929 4.29289C16.4804 4.10536 16.7348 4 17 4H23C23.2652 4 23.5196 4.10536 23.7071 4.29289C23.8946 4.48043 24 4.73478 24 5V8H16V5ZM36 30C36 30.5304 35.7893 31.0391 35.4142 31.4142C35.0391 31.7893 34.5304 32 34 32H6C5.46957 32 4.96086 31.7893 4.58579 31.4142C4.21071 31.0391 4 30.5304 4 30V14C4 13.4696 4.21071 12.9609 4.58579 12.5858C4.96086 12.2107 5.46957 12 6 12H34C34.5304 12 35.0391 12.2107 35.4142 12.5858C35.7893 12.9609 36 13.4696 36 14V30Z" fill="black"/>
<path d="M20 15C18.6155 15 17.2622 15.4105 16.111 16.1797C14.9599 16.9489 14.0627 18.0421 13.5328 19.3212C13.003 20.6003 12.8644 22.0078 13.1345 23.3656C13.4046 24.7235 14.0713 25.9708 15.0503 26.9497C16.0292 27.9287 17.2765 28.5954 18.6344 28.8655C19.9922 29.1356 21.3997 28.997 22.6788 28.4672C23.9579 27.9373 25.0511 27.0401 25.8203 25.889C26.5895 24.7378 27 23.3845 27 22C27 20.1435 26.2625 18.363 24.9498 17.0503C23.637 15.7375 21.8565 15 20 15ZM20 25C19.4067 25 18.8266 24.8241 18.3333 24.4944C17.8399 24.1648 17.4554 23.6962 17.2284 23.1481C17.0013 22.5999 16.9419 21.9967 17.0576 21.4147C17.1734 20.8328 17.4591 20.2982 17.8787 19.8787C18.2982 19.4591 18.8328 19.1734 19.4147 19.0576C19.9967 18.9419 20.5999 19.0013 21.1481 19.2284C21.6962 19.4554 22.1648 19.8399 22.4944 20.3333C22.8241 20.8266 23 21.4067 23 22C23 22.7956 22.6839 23.5587 22.1213 24.1213C21.5587 24.6839 20.7957 25 20 25Z" fill="black"/>
</svg>
