<svg width="27" height="28" viewBox="0 0 27 28" fill="none" xmlns="http://www.w3.org/2000/svg">
<path d="M6.73059 11.5307C7.87065 11.5307 8.98511 11.1926 9.93303 10.5592C10.881 9.92586 11.6198 9.02561 12.0561 7.97233C12.4923 6.91905 12.6065 5.76005 12.3841 4.6419C12.1617 3.52374 11.6127 2.49665 10.8065 1.69051C10.0004 0.884365 8.97329 0.335373 7.85514 0.112958C6.73698 -0.109457 5.57798 0.00469482 4.5247 0.440977C3.47143 0.877259 2.57117 1.61608 1.93779 2.564C1.30441 3.51193 0.966339 4.62639 0.966339 5.76645C0.966339 7.29522 1.57364 8.76138 2.65465 9.84239C3.73565 10.9234 5.20181 11.5307 6.73059 11.5307ZM6.73059 3.29606C7.21918 3.29606 7.69681 3.44094 8.10306 3.71239C8.50932 3.98384 8.82595 4.36966 9.01293 4.82107C9.19991 5.27247 9.24883 5.76919 9.15351 6.2484C9.05819 6.72761 8.82291 7.16779 8.47742 7.51328C8.13193 7.85877 7.69175 8.09405 7.21254 8.18937C6.73333 8.28469 6.23661 8.23577 5.78521 8.04879C5.3338 7.86181 4.94798 7.54518 4.67653 7.13892C4.40508 6.73267 4.2602 6.25504 4.2602 5.76645C4.2602 5.11126 4.52047 4.4829 4.98376 4.01962C5.44704 3.55633 6.0754 3.29606 6.73059 3.29606Z" fill="#231F20"/>
<path d="M19.906 16.4716C18.7659 16.4716 17.6515 16.8096 16.7036 17.443C15.7556 18.0764 15.0168 18.9766 14.5805 20.0299C14.1443 21.0832 14.0301 22.2422 14.2525 23.3604C14.4749 24.4785 15.0239 25.5056 15.8301 26.3117C16.6362 27.1179 17.6633 27.6669 18.7815 27.8893C19.8996 28.1117 21.0586 27.9976 22.1119 27.5613C23.1652 27.125 24.0654 26.3862 24.6988 25.4383C25.3322 24.4903 25.6703 23.3759 25.6703 22.2358C25.6703 20.707 25.063 19.2409 23.9819 18.1599C22.9009 17.0789 21.4348 16.4716 19.906 16.4716ZM19.906 24.7062C19.4174 24.7062 18.9398 24.5613 18.5335 24.2899C18.1273 24.0184 17.8106 23.6326 17.6237 23.1812C17.4367 22.7298 17.3878 22.2331 17.4831 21.7539C17.5784 21.2746 17.8137 20.8345 18.1592 20.489C18.5047 20.1435 18.9448 19.9082 19.4241 19.8129C19.9033 19.7176 20.4 19.7665 20.8514 19.9535C21.3028 20.1404 21.6886 20.4571 21.9601 20.8633C22.2315 21.2696 22.3764 21.7472 22.3764 22.2358C22.3764 22.891 22.1161 23.5193 21.6528 23.9826C21.1895 24.4459 20.5612 24.7062 19.906 24.7062Z" fill="#231F20"/>
<path d="M26.0655 0.430426C25.9294 0.293984 25.7677 0.185734 25.5896 0.111876C25.4116 0.0380173 25.2207 0 25.028 0C24.8352 0 24.6444 0.0380173 24.4663 0.111876C24.2883 0.185734 24.1266 0.293984 23.9904 0.430426L0.571087 23.8497C0.299338 24.1271 0.145826 24.499 0.142885 24.8873C0.142444 25.1775 0.228171 25.4614 0.389201 25.7028C0.550231 25.9443 0.779316 26.1325 1.04742 26.2436C1.31553 26.3547 1.61059 26.3838 1.89522 26.327C2.17984 26.2703 2.44122 26.1303 2.64622 25.9249L26.0655 2.50555C26.202 2.3694 26.3102 2.20768 26.3841 2.02964C26.4579 1.8516 26.496 1.66074 26.496 1.46799C26.496 1.27524 26.4579 1.08438 26.3841 0.90634C26.3102 0.7283 26.202 0.566576 26.0655 0.430426Z" fill="#231F20"/>
</svg>
