<svg width="32" height="28" viewBox="0 0 32 28" fill="none" xmlns="http://www.w3.org/2000/svg">
<path d="M26.4444 6.22222H21.7778V3.88889C21.7778 2.85749 21.3681 1.86834 20.6387 1.13903C19.9094 0.409721 18.9203 0 17.8889 0H13.2222C12.1908 0 11.2017 0.409721 10.4724 1.13903C9.74305 1.86834 9.33333 2.85749 9.33333 3.88889V6.22222H4.66667C3.42899 6.22222 2.242 6.71389 1.36684 7.58906C0.491665 8.46423 0 9.65121 0 10.8889V23.3333C0 24.571 0.491665 25.758 1.36684 26.6332C2.242 27.5083 3.42899 28 4.66667 28H26.4444C27.6821 28 28.8691 27.5083 29.7443 26.6332C30.6194 25.758 31.1111 24.571 31.1111 23.3333V10.8889C31.1111 9.65121 30.6194 8.46423 29.7443 7.58906C28.8691 6.71389 27.6821 6.22222 26.4444 6.22222ZM12.4444 3.88889C12.4444 3.68261 12.5264 3.48478 12.6722 3.33892C12.8181 3.19306 13.0159 3.11111 13.2222 3.11111H17.8889C18.0952 3.11111 18.293 3.19306 18.4389 3.33892C18.5847 3.48478 18.6667 3.68261 18.6667 3.88889V6.22222H12.4444V3.88889ZM28 23.3333C28 23.7459 27.8361 24.1416 27.5444 24.4333C27.2527 24.725 26.857 24.8889 26.4444 24.8889H4.66667C4.25411 24.8889 3.85845 24.725 3.56672 24.4333C3.275 24.1416 3.11111 23.7459 3.11111 23.3333V10.8889C3.11111 10.4763 3.275 10.0807 3.56672 9.78895C3.85845 9.49722 4.25411 9.33333 4.66667 9.33333H26.4444C26.857 9.33333 27.2527 9.49722 27.5444 9.78895C27.8361 10.0807 28 10.4763 28 10.8889V23.3333Z" fill="black"/>
<path d="M15.5555 11.6667C14.4787 11.6667 13.4261 11.9861 12.5308 12.5843C11.6354 13.1825 10.9376 14.0329 10.5255 15.0277C10.1134 16.0225 10.0056 17.1172 10.2157 18.1734C10.4258 19.2295 10.9443 20.1996 11.7057 20.961C12.4671 21.7224 13.4373 22.2409 14.4934 22.451C15.5495 22.6611 16.6442 22.5533 17.639 22.1412C18.6339 21.7291 19.4842 21.0313 20.0824 20.136C20.6807 19.2406 21 18.188 21 17.1112C21 15.6672 20.4264 14.2824 19.4053 13.2614C18.3843 12.2404 16.9995 11.6667 15.5555 11.6667ZM15.5555 19.4445C15.094 19.4445 14.6429 19.3077 14.2592 19.0513C13.8755 18.7949 13.5764 18.4305 13.3998 18.0041C13.2232 17.5778 13.177 17.1086 13.267 16.656C13.3571 16.2034 13.5793 15.7876 13.9056 15.4613C14.2319 15.135 14.6477 14.9127 15.1003 14.8227C15.5529 14.7327 16.0221 14.7789 16.4485 14.9555C16.8748 15.1321 17.2392 15.4311 17.4956 15.8149C17.752 16.1986 17.8889 16.6497 17.8889 17.1112C17.8889 17.73 17.643 18.3235 17.2054 18.7611C16.7679 19.1987 16.1744 19.4445 15.5555 19.4445Z" fill="black"/>
</svg>
