<svg width="30" height="36" viewBox="0 0 30 36" fill="none" xmlns="http://www.w3.org/2000/svg">
<path d="M20.2995 25.2H9.49967C9.02229 25.2 8.56447 25.3896 8.22691 25.7271C7.88935 26.0647 7.69971 26.5225 7.69971 26.9999C7.69971 27.4773 7.88935 27.9351 8.22691 28.2727C8.56447 28.6102 9.02229 28.7999 9.49967 28.7999H20.2995C20.7769 28.7999 21.2347 28.6102 21.5722 28.2727C21.9098 27.9351 22.0994 27.4773 22.0994 26.9999C22.0994 26.5225 21.9098 26.0647 21.5722 25.7271C21.2347 25.3896 20.7769 25.2 20.2995 25.2Z" fill="#231F20"/>
<path d="M9.49967 21.5999H14.8996C15.377 21.5999 15.8348 21.4103 16.1723 21.0727C16.5099 20.7352 16.6995 20.2773 16.6995 19.8C16.6995 19.3226 16.5099 18.8648 16.1723 18.5272C15.8348 18.1896 15.377 18 14.8996 18H9.49967C9.02229 18 8.56447 18.1896 8.22691 18.5272C7.88935 18.8648 7.69971 19.3226 7.69971 19.8C7.69971 20.2773 7.88935 20.7352 8.22691 21.0727C8.56447 21.4103 9.02229 21.5999 9.49967 21.5999Z" fill="#231F20"/>
<path d="M28.8315 11.3941L19.0397 0.594313C18.8714 0.40785 18.6659 0.258672 18.4365 0.156373C18.2071 0.0540736 17.9589 0.000917633 17.7077 0.000323951H5.10792C4.50988 -0.00680949 3.91629 0.10393 3.36105 0.326219C2.80581 0.548509 2.2998 0.877993 1.8719 1.29586C1.44401 1.71372 1.10262 2.21178 0.867226 2.76159C0.631833 3.31141 0.507049 3.9022 0.5 4.50024V31.4998C0.507049 32.0978 0.631833 32.6886 0.867226 33.2384C1.10262 33.7882 1.44401 34.2863 1.8719 34.7041C2.2998 35.122 2.80581 35.4515 3.36105 35.6738C3.91629 35.8961 4.50988 36.0068 5.10792 35.9997H24.6916C25.2896 36.0068 25.8832 35.8961 26.4384 35.6738C26.9937 35.4515 27.4997 35.122 27.9276 34.7041C28.3555 34.2863 28.6969 33.7882 28.9323 33.2384C29.1676 32.6886 29.2924 32.0978 29.2995 31.4998V12.6001C29.2983 12.154 29.1315 11.7242 28.8315 11.3941ZM18.4997 5.40023L23.4316 10.8001H19.8317C19.6432 10.7887 19.4588 10.7399 19.2894 10.6565C19.12 10.5732 18.9689 10.4569 18.8449 10.3144C18.7209 10.172 18.6265 10.0063 18.5672 9.82702C18.5079 9.64772 18.485 9.45842 18.4997 9.27016V5.40023ZM24.6916 32.3997H5.10792C4.98259 32.407 4.85706 32.3895 4.73852 32.3482C4.61998 32.3069 4.51075 32.2426 4.41711 32.159C4.32347 32.0754 4.24725 31.9741 4.19282 31.861C4.13839 31.7479 4.10683 31.6251 4.09994 31.4998V4.50024C4.10683 4.3749 4.13839 4.25214 4.19282 4.13902C4.24725 4.0259 4.32347 3.92463 4.41711 3.84102C4.51075 3.75741 4.61998 3.6931 4.73852 3.65179C4.85706 3.61048 4.98259 3.59296 5.10792 3.60026H14.8997V9.27016C14.8707 10.5961 15.3673 11.8796 16.2812 12.8407C17.195 13.8018 18.452 14.3624 19.7777 14.4001H25.6995V31.4998C25.6927 31.6251 25.6611 31.7479 25.6067 31.861C25.5522 31.9741 25.476 32.0754 25.3824 32.159C25.2887 32.2426 25.1795 32.3069 25.061 32.3482C24.9424 32.3895 24.8169 32.407 24.6916 32.3997Z" fill="#231F20"/>
</svg>
