<svg width="22" height="28" viewBox="0 0 22 28" fill="none" xmlns="http://www.w3.org/2000/svg">
<path d="M11.0001 12.4442C12.2307 12.4442 13.4337 12.0793 14.4569 11.3956C15.4802 10.7119 16.2777 9.74011 16.7486 8.60315C17.2196 7.46619 17.3428 6.21511 17.1027 5.00812C16.8626 3.80112 16.27 2.69243 15.3998 1.82224C14.5296 0.952042 13.4209 0.359433 12.2139 0.119347C11.007 -0.120738 9.75587 0.00248235 8.61891 0.473428C7.48195 0.944373 6.51017 1.74189 5.82647 2.76513C5.14276 3.78837 4.77783 4.99137 4.77783 6.22201C4.77783 7.87225 5.43339 9.45489 6.60028 10.6218C7.76717 11.7887 9.34982 12.4442 11.0001 12.4442ZM11.0001 3.1109C11.6154 3.1109 12.2169 3.29336 12.7285 3.63522C13.2401 3.97707 13.6389 4.46296 13.8743 5.03144C14.1098 5.59992 14.1714 6.22546 14.0514 6.82896C13.9313 7.43245 13.635 7.9868 13.1999 8.4219C12.7648 8.85699 12.2105 9.1533 11.607 9.27334C11.0035 9.39339 10.378 9.33177 9.80948 9.0963C9.241 8.86083 8.75511 8.46207 8.41326 7.95045C8.07141 7.43883 7.88894 6.83733 7.88894 6.22201C7.88894 5.39689 8.21672 4.60557 8.80017 4.02212C9.38361 3.43868 10.1749 3.1109 11.0001 3.1109Z" fill="#575757"/>
<path d="M11 15.5555C8.11209 15.5555 5.34246 16.7027 3.3004 18.7448C1.25833 20.7868 0.111115 23.5565 0.111115 26.4444C0.111115 26.8569 0.275003 27.2526 0.566726 27.5443C0.85845 27.8361 1.25411 27.9999 1.66667 27.9999C2.07923 27.9999 2.47489 27.8361 2.76661 27.5443C3.05834 27.2526 3.22223 26.8569 3.22223 26.4444C3.22223 24.3816 4.04167 22.4033 5.50028 20.9447C6.9589 19.486 8.93721 18.6666 11 18.6666C13.0628 18.6666 15.0411 19.486 16.4997 20.9447C17.9583 22.4033 18.7778 24.3816 18.7778 26.4444C18.7778 26.8569 18.9417 27.2526 19.2334 27.5443C19.5251 27.8361 19.9208 27.9999 20.3333 27.9999C20.7459 27.9999 21.1416 27.8361 21.4333 27.5443C21.725 27.2526 21.8889 26.8569 21.8889 26.4444C21.8889 23.5565 20.7417 20.7868 18.6996 18.7448C16.6575 16.7027 13.8879 15.5555 11 15.5555Z" fill="#575757"/>
</svg>
