<svg width="23" height="28" viewBox="0 0 23 28" fill="none" xmlns="http://www.w3.org/2000/svg">
<path d="M11.4604 12.4442C12.691 12.4442 13.894 12.0793 14.9173 11.3956C15.9405 10.7119 16.738 9.74008 17.209 8.60312C17.6799 7.46616 17.8031 6.21508 17.5631 5.00808C17.323 3.80109 16.7304 2.6924 15.8602 1.8222C14.99 0.952011 13.8813 0.359403 12.6743 0.119317C11.4673 -0.120769 10.2162 0.00245183 9.07925 0.473397C7.94229 0.944342 6.97051 1.74186 6.28681 2.7651C5.6031 3.78834 5.23817 4.99134 5.23817 6.22198C5.23817 7.87222 5.89373 9.45486 7.06062 10.6218C8.22751 11.7886 9.81016 12.4442 11.4604 12.4442ZM11.4604 3.11087C12.0757 3.11087 12.6772 3.29333 13.1888 3.63519C13.7005 3.97704 14.0992 4.46293 14.3347 5.03141C14.5702 5.59989 14.6318 6.22543 14.5117 6.82893C14.3917 7.43242 14.0954 7.98677 13.6603 8.42187C13.2252 8.85696 12.6708 9.15327 12.0673 9.27331C11.4638 9.39336 10.8383 9.33174 10.2698 9.09627C9.70134 8.8608 9.21545 8.46204 8.8736 7.95042C8.53175 7.4388 8.34928 6.8373 8.34928 6.22198C8.34928 5.39686 8.67706 4.60554 9.26051 4.02209C9.84395 3.43865 10.6353 3.11087 11.4604 3.11087Z" fill="black"/>
<path d="M11.4604 15.5555C8.57245 15.5555 5.80282 16.7028 3.76075 18.7448C1.71869 20.7869 0.571472 23.5565 0.571472 26.4444C0.571472 26.857 0.735361 27.2527 1.02708 27.5444C1.31881 27.8361 1.71447 28 2.12703 28C2.53959 28 2.93525 27.8361 3.22697 27.5444C3.51869 27.2527 3.68258 26.857 3.68258 26.4444C3.68258 24.3816 4.50202 22.4033 5.96064 20.9447C7.41926 19.4861 9.39756 18.6667 11.4604 18.6667C13.5232 18.6667 15.5015 19.4861 16.9601 20.9447C18.4187 22.4033 19.2381 24.3816 19.2381 26.4444C19.2381 26.857 19.402 27.2527 19.6937 27.5444C19.9855 27.8361 20.3811 28 20.7937 28C21.2063 28 21.6019 27.8361 21.8936 27.5444C22.1854 27.2527 22.3492 26.857 22.3492 26.4444C22.3492 23.5565 21.202 20.7869 19.16 18.7448C17.1179 16.7028 14.3483 15.5555 11.4604 15.5555Z" fill="black"/>
</svg>
