<svg width="30" height="36" viewBox="0 0 30 36" fill="none" xmlns="http://www.w3.org/2000/svg">
<path d="M27.586 32.3895H2.31303C1.83425 32.3895 1.37509 32.5797 1.03655 32.9183C0.698004 33.2568 0.507813 33.716 0.507812 34.1947C0.507813 34.6735 0.698004 35.1327 1.03655 35.4712C1.37509 35.8098 1.83425 36 2.31303 36H27.586C28.0648 36 28.5239 35.8098 28.8625 35.4712C29.201 35.1327 29.3912 34.6735 29.3912 34.1947C29.3912 33.716 29.201 33.2568 28.8625 32.9183C28.5239 32.5797 28.0648 32.3895 27.586 32.3895Z" fill="black"/>
<path d="M2.3128 28.7791H2.47527L10.003 28.0932C10.8276 28.011 11.5989 27.6477 12.1873 27.0642L28.4342 10.8173C29.0648 10.1511 29.4056 9.2621 29.3819 8.3451C29.3583 7.4281 28.972 6.55789 28.3079 5.92515L23.3616 0.97886C22.716 0.372482 21.8701 0.0245501 20.9847 0.00125058C20.0993 -0.0220489 19.2363 0.280909 18.5597 0.852495L2.3128 17.0994C1.72929 17.6879 1.36597 18.4591 1.28383 19.2837L0.507587 26.8115C0.483269 27.0759 0.517578 27.3424 0.608068 27.592C0.698557 27.8416 0.843 28.0682 1.0311 28.2556C1.19978 28.4229 1.39983 28.5553 1.61977 28.6451C1.83971 28.735 2.07522 28.7805 2.3128 28.7791ZM20.8523 3.50616L25.7806 8.43439L22.1702 11.9546L17.3322 7.11659L20.8523 3.50616ZM4.78594 19.5906L14.9493 9.49947L19.8234 14.3735L9.71418 24.4827L4.29854 24.9882L4.78594 19.5906Z" fill="black"/>
</svg>
