<svg width="18" height="22" viewBox="0 0 18 22" fill="none" xmlns="http://www.w3.org/2000/svg">
<path d="M12.0995 15.3999H5.49964C5.20791 15.3999 4.92812 15.5158 4.72184 15.7221C4.51555 15.9284 4.39966 16.2081 4.39966 16.4999C4.39966 16.7916 4.51555 17.0714 4.72184 17.2777C4.92812 17.484 5.20791 17.5999 5.49964 17.5999H12.0995C12.3913 17.5999 12.671 17.484 12.8773 17.2777C13.0836 17.0714 13.1995 16.7916 13.1995 16.4999C13.1995 16.2081 13.0836 15.9284 12.8773 15.7221C12.671 15.5158 12.3913 15.3999 12.0995 15.3999Z" fill="#231F20"/>
<path d="M5.49964 13.2H8.79958C9.09131 13.2 9.3711 13.0841 9.57738 12.8778C9.78367 12.6715 9.89956 12.3917 9.89956 12.1C9.89956 11.8082 9.78367 11.5285 9.57738 11.3222C9.3711 11.1159 9.09131 11 8.79958 11H5.49964C5.20791 11 4.92812 11.1159 4.72184 11.3222C4.51555 11.5285 4.39966 11.8082 4.39966 12.1C4.39966 12.3917 4.51555 12.6715 4.72184 12.8778C4.92812 13.0841 5.20791 13.2 5.49964 13.2Z" fill="#231F20"/>
<path d="M17.3137 6.96307L11.3298 0.363191C11.227 0.249242 11.1014 0.158077 10.9612 0.0955612C10.821 0.033045 10.6693 0.000560776 10.5158 0.00019797H2.81595C2.45048 -0.00416135 2.08773 0.0635128 1.74842 0.199356C1.40911 0.3352 1.09988 0.536551 0.838385 0.791913C0.576895 1.04727 0.368267 1.35164 0.224416 1.68764C0.0805648 2.02364 0.00430794 2.38468 0 2.75015V19.2499C0.00430794 19.6153 0.0805648 19.9764 0.224416 20.3124C0.368267 20.6484 0.576895 20.9527 0.838385 21.2081C1.09988 21.4634 1.40911 21.6648 1.74842 21.8006C2.08773 21.9365 2.45048 22.0042 2.81595 21.9998H14.7837C15.1492 22.0042 15.512 21.9365 15.8513 21.8006C16.1906 21.6648 16.4998 21.4634 16.7613 21.2081C17.0228 20.9527 17.2314 20.6484 17.3753 20.3124C17.5191 19.9764 17.5954 19.6153 17.5997 19.2499V7.70006C17.599 7.42744 17.4971 7.16481 17.3137 6.96307ZM10.9998 3.30014L14.0137 6.60008H11.8138C11.6986 6.59312 11.5859 6.5633 11.4824 6.51234C11.3789 6.46137 11.2865 6.3903 11.2107 6.30326C11.135 6.21623 11.0773 6.11497 11.0411 6.0054C11.0049 5.89583 10.9908 5.78015 10.9998 5.6651V3.30014ZM14.7837 19.7998H2.81595C2.73936 19.8043 2.66265 19.7936 2.59021 19.7683C2.51776 19.7431 2.45102 19.7038 2.39379 19.6527C2.33656 19.6016 2.28999 19.5397 2.25672 19.4706C2.22346 19.4015 2.20417 19.3265 2.19996 19.2499V2.75015C2.20417 2.67355 2.22346 2.59853 2.25672 2.5294C2.28999 2.46027 2.33656 2.39838 2.39379 2.34729C2.45102 2.29619 2.51776 2.2569 2.59021 2.23165C2.66265 2.2064 2.73936 2.1957 2.81595 2.20016H8.79984V5.6651C8.78208 6.47537 9.08556 7.25976 9.64404 7.84709C10.2025 8.43442 10.9707 8.777 11.7808 8.80004H15.3997V19.2499C15.3955 19.3265 15.3762 19.4015 15.343 19.4706C15.3097 19.5397 15.2631 19.6016 15.2059 19.6527C15.1487 19.7038 15.0819 19.7431 15.0095 19.7683C14.937 19.7936 14.8603 19.8043 14.7837 19.7998Z" fill="#231F20"/>
</svg>
