<svg width="24" height="28" viewBox="0 0 24 28" fill="none" xmlns="http://www.w3.org/2000/svg">
<path d="M21.781 25.1918H2.12427C1.75189 25.1918 1.39476 25.3397 1.13145 25.603C0.868142 25.8663 0.720215 26.2234 0.720215 26.5958C0.720215 26.9682 0.868142 27.3253 1.13145 27.5886C1.39476 27.852 1.75189 27.9999 2.12427 27.9999H21.781C22.1534 27.9999 22.5105 27.852 22.7738 27.5886C23.0372 27.3253 23.1851 26.9682 23.1851 26.5958C23.1851 26.2234 23.0372 25.8663 22.7738 25.603C22.5105 25.3397 22.1534 25.1918 21.781 25.1918Z" fill="black"/>
<path d="M2.12425 22.3838H2.25062L8.10553 21.8502C8.74689 21.7864 9.34676 21.5038 9.80443 21.0499L22.4409 8.41343C22.9314 7.89529 23.1964 7.20385 23.178 6.49063C23.1596 5.77741 22.8592 5.10058 22.3426 4.60845L18.4955 0.761336C17.9934 0.289708 17.3355 0.0190945 16.6469 0.00097267C15.9582 -0.0171492 15.287 0.218485 14.7607 0.663052L2.12425 13.2995C1.67041 13.7572 1.38783 14.3571 1.32394 14.9985L0.720196 20.8534C0.701282 21.059 0.727966 21.2663 0.798347 21.4605C0.868728 21.6546 0.981072 21.8308 1.12737 21.9766C1.25857 22.1067 1.41416 22.2097 1.58522 22.2796C1.75629 22.3494 1.93947 22.3848 2.12425 22.3838ZM16.5439 2.72701L20.377 6.56008L17.5689 9.29799L13.806 5.53512L16.5439 2.72701ZM4.04781 15.2371L11.9526 7.38847L15.7436 11.1794L7.88088 19.0421L3.66871 19.4353L4.04781 15.2371Z" fill="black"/>
</svg>
