<svg width="24" height="24" viewBox="0 0 24 24" fill="none" xmlns="http://www.w3.org/2000/svg">
<g clip-path="url(#clip0_299_3795)">
<path d="M7.34035 6.40977L0.860352 12.8998L7.35035 19.3798L13.8404 12.8998L7.34035 6.40977ZM3.69035 12.8998L7.35035 9.23977L11.0004 12.8998L7.34035 16.5598L3.69035 12.8998ZM19.3604 6.63977C17.6104 4.87977 15.3004 3.99977 13.0004 3.99977V0.759766L8.76035 4.99977L13.0004 9.23977V5.99977C14.7904 5.99977 16.5804 6.67977 17.9504 8.04977C20.6804 10.7798 20.6804 15.2198 17.9504 17.9498C16.5804 19.3198 14.7904 19.9998 13.0004 19.9998C12.0304 19.9998 11.0604 19.7898 10.1604 19.3898L8.67035 20.8798C10.0204 21.6198 11.5104 21.9998 13.0004 21.9998C15.3004 21.9998 17.6104 21.1198 19.3604 19.3598C22.8804 15.8498 22.8804 10.1498 19.3604 6.63977Z" fill="white"/>
</g>
<defs>
<clipPath id="clip0_299_3795">
<rect width="24" height="24" fill="white"/>
</clipPath>
</defs>
</svg>
