<svg width="22" height="32" viewBox="0 0 22 32" fill="none" xmlns="http://www.w3.org/2000/svg">
<path d="M11.0002 12.6663C11.9168 12.6663 12.6668 11.9163 12.6668 10.9997C12.6668 10.083 11.9168 9.33301 11.0002 9.33301C10.0835 9.33301 9.3335 10.083 9.3335 10.9997C9.3335 11.9163 10.0835 12.6663 11.0002 12.6663ZM11.0002 14.333C10.0835 14.333 9.3335 15.083 9.3335 15.9997C9.3335 16.9163 10.0835 17.6663 11.0002 17.6663C11.9168 17.6663 12.6668 16.9163 12.6668 15.9997C12.6668 15.083 11.9168 14.333 11.0002 14.333ZM11.0002 19.333C10.0835 19.333 9.3335 20.083 9.3335 20.9997C9.3335 21.9163 10.0835 22.6663 11.0002 22.6663C11.9168 22.6663 12.6668 21.9163 12.6668 20.9997C12.6668 20.083 11.9168 19.333 11.0002 19.333Z" fill="#767676"/>
</svg>
