<svg width="34" height="36" viewBox="0 0 34 36" fill="none" xmlns="http://www.w3.org/2000/svg">
<path d="M9.23077 7.38462C9.23077 8.40421 8.40421 9.23077 7.38462 9.23077C6.36502 9.23077 5.53846 8.40421 5.53846 7.38462C5.53846 6.36502 6.36502 5.53846 7.38462 5.53846C8.40421 5.53846 9.23077 6.36502 9.23077 7.38462ZM7.38462 14.7692C8.40421 14.7692 9.23077 13.9427 9.23077 12.9231C9.23077 11.9035 8.40421 11.0769 7.38462 11.0769C6.36502 11.0769 5.53846 11.9035 5.53846 12.9231C5.53846 13.9427 6.36502 14.7692 7.38462 14.7692ZM9.23077 18.4615C9.23077 19.4812 8.40421 20.3077 7.38462 20.3077C6.36502 20.3077 5.53846 19.4812 5.53846 18.4615C5.53846 17.4419 6.36502 16.6154 7.38462 16.6154C8.40421 16.6154 9.23077 17.4419 9.23077 18.4615ZM9.23077 24C9.23077 25.0196 8.40421 25.8462 7.38462 25.8462C6.36502 25.8462 5.53846 25.0196 5.53846 24C5.53846 22.9804 6.36502 22.1538 7.38462 22.1538C8.40421 22.1538 9.23077 22.9804 9.23077 24ZM7.38462 31.3846C8.40421 31.3846 9.23077 30.5581 9.23077 29.5385C9.23077 28.5188 8.40421 27.6923 7.38462 27.6923C6.36502 27.6923 5.53846 28.5188 5.53846 29.5385C5.53846 30.5581 6.36502 31.3846 7.38462 31.3846ZM20.3077 25.8462C21.3273 25.8462 22.1538 25.0196 22.1538 24C22.1538 22.9804 21.3273 22.1538 20.3077 22.1538C19.2881 22.1538 18.4615 22.9804 18.4615 24C18.4615 25.0196 19.2881 25.8462 20.3077 25.8462ZM25.8462 25.8462C26.8658 25.8462 27.6923 25.0196 27.6923 24C27.6923 22.9804 26.8658 22.1538 25.8462 22.1538C24.8265 22.1538 24 22.9804 24 24C24 25.0196 24.8265 25.8462 25.8462 25.8462ZM25.8462 20.3077C26.8658 20.3077 27.6923 19.4812 27.6923 18.4615C27.6923 17.4419 26.8658 16.6154 25.8462 16.6154C24.8265 16.6154 24 17.4419 24 18.4615C24 19.4812 24.8265 20.3077 25.8462 20.3077ZM22.1538 18.4615C22.1538 19.4812 21.3273 20.3077 20.3077 20.3077C19.2881 20.3077 18.4615 19.4812 18.4615 18.4615C18.4615 17.4419 19.2881 16.6154 20.3077 16.6154C21.3273 16.6154 22.1538 17.4419 22.1538 18.4615ZM25.8462 14.7692C26.8658 14.7692 27.6923 13.9427 27.6923 12.9231C27.6923 11.9035 26.8658 11.0769 25.8462 11.0769C24.8265 11.0769 24 11.9035 24 12.9231C24 13.9427 24.8265 14.7692 25.8462 14.7692ZM22.1538 12.9231C22.1538 13.9427 21.3273 14.7692 20.3077 14.7692C19.2881 14.7692 18.4615 13.9427 18.4615 12.9231C18.4615 11.9035 19.2881 11.0769 20.3077 11.0769C21.3273 11.0769 22.1538 11.9035 22.1538 12.9231ZM20.3077 5.53846V4.15385C20.3077 1.85974 18.4479 0 16.1538 0H4.15385C1.85974 0 0 1.85974 0 4.15385V34.6154C0 35.3801 0.61992 36 1.38462 36H31.8462C32.6108 36 33.2308 35.3801 33.2308 34.6154V9.69231C33.2308 7.3982 31.371 5.53846 29.0769 5.53846H20.3077ZM2.76923 4.15385C2.76923 3.38915 3.38915 2.76923 4.15385 2.76923H16.1538C16.9185 2.76923 17.5385 3.38915 17.5385 4.15385V5.53846H17.0769C14.7829 5.53846 12.9231 7.3982 12.9231 9.69231V33.2308H2.76923V4.15385ZM21.2308 33.2308V30.4615H24.9231V33.2308H21.2308ZM27.6923 29.0769C27.6923 28.3122 27.0724 27.6923 26.3077 27.6923H19.8462C19.0815 27.6923 18.4615 28.3122 18.4615 29.0769V33.2308H15.6923V9.69231C15.6923 8.92761 16.3122 8.30769 17.0769 8.30769H29.0769C29.8416 8.30769 30.4615 8.92761 30.4615 9.69231V33.2308H27.6923V29.0769Z" fill="black"/>
</svg>
