<svg width="30" height="30" viewBox="0 0 30 30" fill="none" xmlns="http://www.w3.org/2000/svg">
<path d="M9.32143 4.85537C9.29668 4.669 9.28391 4.47886 9.28391 4.28571C9.28391 1.91879 11.2026 0 13.5696 0C15.9366 0 17.8553 1.91879 17.8553 4.28571C17.8553 4.47889 17.8426 4.66907 17.8178 4.85547L21.927 3.1112C23.56 2.418 25.4526 3.17457 26.1576 4.80253C26.8652 6.43609 26.1092 8.32726 24.4705 9.02284L19.2875 11.2229V13.1047C18.5336 13.2824 17.8152 13.5521 17.1446 13.9011V10.9865C17.1446 10.2699 17.573 9.62273 18.2326 9.34274L23.6332 7.05033C24.1769 6.81956 24.426 6.19617 24.1913 5.6542C23.9542 5.10663 23.3136 4.85054 22.7643 5.0837L15.6629 8.09807C15.435 8.1948 15.2022 8.27506 14.9659 8.33883C14.5282 8.48957 14.0585 8.57143 13.5696 8.57143C13.0805 8.57143 12.6105 8.48949 12.1726 8.33856C11.9366 8.27483 11.704 8.19467 11.4765 8.09807L4.37512 5.0837C3.82582 4.85054 3.18528 5.10663 2.9481 5.6542C2.71336 6.19617 2.96259 6.81956 3.50625 7.05033L8.91381 9.3457C9.57342 9.62569 10.0018 10.2729 10.0018 10.9895V16.5734C10.0018 16.7713 9.96891 16.9677 9.90449 17.1547L7.20078 25.0069C7.00813 25.5664 7.30552 26.1761 7.86501 26.3687C8.42451 26.5614 9.03423 26.264 9.22689 25.7046L12.2388 16.9574C12.5552 16.0377 13.5835 15.7873 14.2908 16.2006C12.9483 17.8109 12.1408 19.8826 12.1408 22.1429C12.1408 22.6131 12.1758 23.0751 12.2432 23.5266L11.253 26.4021C10.675 28.0807 8.84585 28.9729 7.16736 28.3949C5.48888 27.817 4.59672 25.9877 5.17466 24.3093L7.85892 16.5136V11.2258L2.66898 9.02284C1.03028 8.32726 0.274219 6.43609 0.981762 4.80253C1.68688 3.17457 3.57935 2.418 5.2124 3.1112L9.32143 4.85537ZM11.4268 4.28571C11.4268 5.20167 12.0015 5.9834 12.8099 6.29C13.3089 6.41139 13.8299 6.41144 14.3289 6.29014C15.1376 5.98364 15.7125 5.20181 15.7125 4.28571C15.7125 3.10224 14.753 2.14286 13.5696 2.14286C12.3862 2.14286 11.4268 3.10224 11.4268 4.28571ZM29.2836 22.1429C29.2836 26.4823 25.7659 30 21.4265 30C17.087 30 13.5693 26.4823 13.5693 22.1429C13.5693 17.8034 17.087 14.2857 21.4265 14.2857C25.7659 14.2857 29.2836 17.8034 29.2836 22.1429ZM26.2173 18.7806C25.9383 18.5017 25.486 18.5017 25.207 18.7806L19.9979 23.9899L17.6459 21.6377C17.3669 21.3589 16.9146 21.3589 16.6356 21.6377C16.3568 21.9167 16.3568 22.369 16.6356 22.648L19.4928 25.5051C19.7718 25.784 20.224 25.784 20.503 25.5051L26.2173 19.7909C26.4962 19.5119 26.4962 19.0596 26.2173 18.7806Z" fill="#575757"/>
</svg>
