<svg width="26" height="28" viewBox="0 0 26 28" fill="none" xmlns="http://www.w3.org/2000/svg">
<path d="M13 0C5.70145 0 0.200012 2.15 0.200012 5V23C0.200012 25.85 5.70145 28 13 28C20.2986 28 25.8 25.85 25.8 23V5C25.8 2.15 20.2986 0 13 0ZM13 2C19.249 2 23.24 3.776 23.24 5C23.24 6.224 19.249 8 13 8C6.75105 8 2.76001 6.224 2.76001 5C2.76001 3.776 6.74849 2 13 2ZM13 26C6.74849 26 2.76001 24.222 2.76001 23V17.074C5.05633 18.26 8.71969 19 13 19C17.2803 19 20.9437 18.26 23.24 17.074V23C23.24 24.222 19.249 26 13 26ZM13 17C6.74849 17 2.76001 15.224 2.76001 14V8.042C5.86785 9.438 9.41857 10.116 13 10C16.5815 10.116 20.1322 9.438 23.24 8.042V14C23.24 15.224 19.2515 17 13 17Z" fill="#575757"/>
</svg>
