<svg width="28" height="34" viewBox="0 0 28 34" fill="none" xmlns="http://www.w3.org/2000/svg">
<path d="M14.85 14.025C14.85 13.3208 15.4209 12.75 16.125 12.75H22.075C22.7792 12.75 23.35 13.3208 23.35 14.025C23.35 14.7291 22.7792 15.3 22.075 15.3H16.125C15.4209 15.3 14.85 14.7291 14.85 14.025ZM16.1252 22.1C15.4209 22.1 14.8502 22.6709 14.8502 23.375C14.8502 24.0791 15.4209 24.65 16.1252 24.65H22.0749C22.7792 24.65 23.3499 24.0791 23.3499 23.375C23.3499 22.6709 22.7792 22.1 22.0749 22.1H16.1252ZM11.9265 13.2266C12.4245 12.7286 12.4245 11.9214 11.9265 11.4234C11.4286 10.9255 10.6214 10.9255 10.1235 11.4234L7.62502 13.9218L6.82659 13.1234C6.32867 12.6255 5.52138 12.6255 5.02346 13.1234C4.52555 13.6214 4.52555 14.4286 5.02346 14.9265L6.72346 16.6265C7.22138 17.1244 8.02867 17.1244 8.52658 16.6265L11.9265 13.2266ZM11.9265 20.7735C12.4245 21.2714 12.4245 22.0786 11.9265 22.5765L8.52658 25.9765C8.02867 26.4744 7.22138 26.4744 6.72346 25.9765L5.02346 24.2765C4.52555 23.7786 4.52555 22.9714 5.02346 22.4735C5.52138 21.9756 6.32867 21.9756 6.82659 22.4735L7.62502 23.2718L10.1235 20.7735C10.6214 20.2756 11.4286 20.2756 11.9265 20.7735ZM20.7898 3.54363C20.6458 1.56252 18.9929 0 16.975 0H11.025C9.05651 0 7.43532 1.48702 7.22347 3.39905L4.22502 3.4C2.11254 3.4 0.400024 5.11251 0.400024 7.225V30.175C0.400024 32.2874 2.11254 34 4.22502 34H23.775C25.8874 34 27.6 32.2874 27.6 30.175V7.225C27.6 5.11251 25.8874 3.4 23.775 3.4L20.7766 3.39905C20.7818 3.44699 20.7863 3.49518 20.7898 3.54363ZM20.7912 3.56312L20.8 3.825C20.8 3.73697 20.7971 3.64965 20.7912 3.56312ZM11.025 7.65H16.975C18.301 7.65 19.4696 6.97522 20.1557 5.95027L23.775 5.95C24.4792 5.95 25.05 6.52084 25.05 7.225V30.175C25.05 30.8791 24.4792 31.45 23.775 31.45H4.22502C3.52087 31.45 2.95002 30.8791 2.95002 30.175V7.225C2.95002 6.52084 3.52087 5.95 4.22502 5.95L7.84436 5.95034C8.53056 6.97527 9.69897 7.65 11.025 7.65ZM11.025 2.55H16.975C17.6792 2.55 18.25 3.12084 18.25 3.825C18.25 4.52916 17.6792 5.1 16.975 5.1H11.025C10.3209 5.1 9.75002 4.52916 9.75002 3.825C9.75002 3.12084 10.3209 2.55 11.025 2.55Z" fill="#575757"/>
</svg>
