<svg width="27" height="28" viewBox="0 0 27 28" fill="none" xmlns="http://www.w3.org/2000/svg">
<path d="M13.7415 0C19.5551 0 24.3021 4.58608 24.5018 10.4061L24.5078 10.7663V16.6476L26.4888 21.178C26.588 21.4047 26.6391 21.6495 26.6391 21.8969C26.6391 22.8879 25.8358 23.6913 24.8447 23.6913L18.048 23.6935C18.048 26.0718 16.12 28 13.7415 28C11.448 28 9.57328 26.2071 9.44229 23.9464L9.43433 23.6902L2.65203 23.6913C2.40607 23.6913 2.16273 23.6407 1.93713 23.5428C1.02817 23.1478 0.611368 22.091 1.00619 21.1821L2.9752 16.6489V10.7662C2.97606 4.80193 7.78715 0 13.7415 0ZM15.8942 23.6902L11.5882 23.6935C11.5882 24.8827 12.5523 25.8467 13.7415 25.8467C14.8608 25.8467 15.7806 24.9928 15.8848 23.9008L15.8942 23.6902ZM13.7415 2.15326C8.97539 2.15326 5.12915 5.99218 5.12846 10.7663V17.0963L3.19917 21.5381H24.296L22.3545 17.0978L22.3547 10.7848L22.3494 10.4615C22.1899 5.8198 18.3948 2.15326 13.7415 2.15326Z" fill="#212121"/>
</svg>
