<svg width="27" height="28" viewBox="0 0 27 28" fill="none" xmlns="http://www.w3.org/2000/svg">
<path d="M7.60808 5.74359C7.60808 6.53661 6.9652 7.17949 6.17218 7.17949C5.37916 7.17949 4.73628 6.53661 4.73628 5.74359C4.73628 4.95057 5.37916 4.30769 6.17218 4.30769C6.9652 4.30769 7.60808 4.95057 7.60808 5.74359ZM6.17218 11.4872C6.9652 11.4872 7.60808 10.8443 7.60808 10.0513C7.60808 9.25826 6.9652 8.61539 6.17218 8.61539C5.37916 8.61539 4.73628 9.25826 4.73628 10.0513C4.73628 10.8443 5.37916 11.4872 6.17218 11.4872ZM7.60808 14.359C7.60808 15.152 6.9652 15.7949 6.17218 15.7949C5.37916 15.7949 4.73628 15.152 4.73628 14.359C4.73628 13.5659 5.37916 12.9231 6.17218 12.9231C6.9652 12.9231 7.60808 13.5659 7.60808 14.359ZM7.60808 18.6667C7.60808 19.4597 6.9652 20.1026 6.17218 20.1026C5.37916 20.1026 4.73628 19.4597 4.73628 18.6667C4.73628 17.8736 5.37916 17.2308 6.17218 17.2308C6.9652 17.2308 7.60808 17.8736 7.60808 18.6667ZM6.17218 24.4103C6.9652 24.4103 7.60808 23.7674 7.60808 22.9744C7.60808 22.1813 6.9652 21.5385 6.17218 21.5385C5.37916 21.5385 4.73628 22.1813 4.73628 22.9744C4.73628 23.7674 5.37916 24.4103 6.17218 24.4103ZM16.2235 20.1026C17.0165 20.1026 17.6594 19.4597 17.6594 18.6667C17.6594 17.8736 17.0165 17.2308 16.2235 17.2308C15.4304 17.2308 14.7876 17.8736 14.7876 18.6667C14.7876 19.4597 15.4304 20.1026 16.2235 20.1026ZM20.5312 20.1026C21.3242 20.1026 21.967 19.4597 21.967 18.6667C21.967 17.8736 21.3242 17.2308 20.5312 17.2308C19.7381 17.2308 19.0953 17.8736 19.0953 18.6667C19.0953 19.4597 19.7381 20.1026 20.5312 20.1026ZM20.5312 15.7949C21.3242 15.7949 21.967 15.152 21.967 14.359C21.967 13.5659 21.3242 12.9231 20.5312 12.9231C19.7381 12.9231 19.0953 13.5659 19.0953 14.359C19.0953 15.152 19.7381 15.7949 20.5312 15.7949ZM17.6594 14.359C17.6594 15.152 17.0165 15.7949 16.2235 15.7949C15.4304 15.7949 14.7876 15.152 14.7876 14.359C14.7876 13.5659 15.4304 12.9231 16.2235 12.9231C17.0165 12.9231 17.6594 13.5659 17.6594 14.359ZM20.5312 11.4872C21.3242 11.4872 21.967 10.8443 21.967 10.0513C21.967 9.25826 21.3242 8.61539 20.5312 8.61539C19.7381 8.61539 19.0953 9.25826 19.0953 10.0513C19.0953 10.8443 19.7381 11.4872 20.5312 11.4872ZM17.6594 10.0513C17.6594 10.8443 17.0165 11.4872 16.2235 11.4872C15.4304 11.4872 14.7876 10.8443 14.7876 10.0513C14.7876 9.25826 15.4304 8.61539 16.2235 8.61539C17.0165 8.61539 17.6594 9.25826 17.6594 10.0513ZM16.2235 4.30769V3.23077C16.2235 1.44647 14.7769 0 12.9927 0H3.65936C1.87505 0 0.428589 1.44647 0.428589 3.23077V26.9231C0.428589 27.5178 0.910749 28 1.50551 28H25.1978C25.7926 28 26.2747 27.5178 26.2747 26.9231V7.53846C26.2747 5.75416 24.8282 4.30769 23.044 4.30769H16.2235ZM2.58243 3.23077C2.58243 2.63601 3.06459 2.15385 3.65936 2.15385H12.9927C13.5874 2.15385 14.0696 2.63601 14.0696 3.23077V4.30769H13.7106C11.9264 4.30769 10.4799 5.75416 10.4799 7.53846V25.8462H2.58243V3.23077ZM16.9414 25.8462V23.6923H19.8132V25.8462H16.9414ZM21.967 22.6154C21.967 22.0206 21.4849 21.5385 20.8901 21.5385H15.8645C15.2697 21.5385 14.7876 22.0206 14.7876 22.6154V25.8462H12.6337V7.53846C12.6337 6.9437 13.1159 6.46154 13.7106 6.46154H23.044C23.6387 6.46154 24.1209 6.9437 24.1209 7.53846V25.8462H21.967V22.6154Z" fill="black"/>
</svg>
