<svg width="26" height="28" viewBox="0 0 26 28" fill="none" xmlns="http://www.w3.org/2000/svg">
<path d="M12.9822 0C15.0607 0 17.003 0.584238 18.6507 1.60029C18.1598 2.12478 17.7801 2.75437 17.5492 3.45155C16.2246 2.62781 14.659 2.15327 12.9822 2.15327C8.20838 2.15327 4.35587 5.99218 4.35518 10.7663V17.0964L2.42275 21.538H23.5541L21.6094 17.0978L21.6095 10.7848L21.604 10.4615C21.5987 10.3059 21.5893 10.1515 21.5759 9.99819C21.8214 10.035 22.0727 10.054 22.3285 10.054C22.8139 10.054 23.2833 9.98535 23.7274 9.85729C23.7428 10.0389 23.7537 10.2219 23.76 10.4061L23.7661 10.7663V16.6475L25.7503 21.1781C25.8497 21.4048 25.901 21.6495 25.901 21.8969C25.901 22.8879 25.0961 23.6913 24.1037 23.6913L17.2958 23.6935C17.2958 26.0719 15.3645 28 12.9822 28C10.6851 28 8.80725 26.2071 8.67605 23.9465L8.66808 23.6902L1.87471 23.6913C1.62834 23.6913 1.38461 23.6408 1.15866 23.5428C0.248212 23.148 -0.169275 22.091 0.226185 21.1821L2.19842 16.649V10.7662C2.19927 4.80193 7.01821 0 12.9822 0ZM15.1383 23.6902L10.8255 23.6935C10.8255 24.8827 11.7911 25.8467 12.9822 25.8467C14.1034 25.8467 15.0246 24.9928 15.1292 23.9008L15.1383 23.6902ZM18.791 4.38892C18.9277 3.632 19.302 2.95759 19.8342 2.44549C20.4806 1.82347 21.3598 1.44095 22.3285 1.44095C24.3137 1.44095 25.9231 3.04769 25.9231 5.02972C25.9231 6.59899 24.9142 7.93301 23.5086 8.42057C23.139 8.54881 22.7418 8.6185 22.3285 8.6185C21.9718 8.6185 21.6273 8.56663 21.3021 8.47005C19.8169 8.02905 18.7338 6.65565 18.7338 5.02972C18.7338 4.811 18.7535 4.59684 18.791 4.38892Z" fill="#575757"/>
</svg>
