<svg width="17" height="16" viewBox="0 0 17 16" fill="none" xmlns="http://www.w3.org/2000/svg">
<path d="M16.2372 14.4753L13.2159 11.463C14.1907 10.2211 14.7196 8.68756 14.7176 7.10882C14.7176 5.70283 14.3007 4.32841 13.5196 3.15937C12.7385 1.99033 11.6282 1.07918 10.3293 0.54113C9.03028 0.00308012 7.60094 -0.137698 6.22196 0.136597C4.84299 0.410893 3.57631 1.08794 2.58213 2.08213C1.58794 3.07631 0.910893 4.34299 0.636597 5.72196C0.362302 7.10094 0.50308 8.53028 1.04113 9.82925C1.57918 11.1282 2.49033 12.2385 3.65937 13.0196C4.82841 13.8007 6.20283 14.2176 7.60882 14.2176C9.18756 14.2196 10.7211 13.6907 11.963 12.7159L14.9753 15.7372C15.0579 15.8204 15.1562 15.8865 15.2645 15.9317C15.3728 15.9768 15.4889 16 15.6062 16C15.7236 16 15.8397 15.9768 15.948 15.9317C16.0563 15.8865 16.1545 15.8204 16.2372 15.7372C16.3204 15.6545 16.3865 15.5563 16.4317 15.448C16.4768 15.3397 16.5 15.2236 16.5 15.1062C16.5 14.9889 16.4768 14.8728 16.4317 14.7645C16.3865 14.6562 16.3204 14.5579 16.2372 14.4753ZM2.27721 7.10882C2.27721 6.05433 2.5899 5.02352 3.17575 4.14674C3.76159 3.26996 4.59428 2.58659 5.5685 2.18305C6.54273 1.77952 7.61474 1.67393 8.64897 1.87965C9.6832 2.08538 10.6332 2.59316 11.3788 3.3388C12.1245 4.08444 12.6323 5.03444 12.838 6.06868C13.0437 7.10291 12.9381 8.17492 12.5346 9.14914C12.1311 10.1234 11.4477 10.9561 10.5709 11.5419C9.69413 12.1277 8.66332 12.4404 7.60882 12.4404C6.19479 12.4404 4.83867 11.8787 3.8388 10.8788C2.83893 9.87897 2.27721 8.52285 2.27721 7.10882Z" fill="#575757"/>
</svg>
