<svg width="28" height="28" viewBox="0 0 28 28" fill="none" xmlns="http://www.w3.org/2000/svg">
<path d="M27.9975 12.9853C27.9797 12.6962 27.8814 12.4177 27.7138 12.1814C27.5461 11.945 27.3158 11.7602 27.0488 11.6478L23.7049 10.2169L27.2199 8.19507C27.4691 8.05174 27.6737 7.84214 27.811 7.58956C27.9482 7.33697 28.0128 7.05128 27.9975 6.76421C27.9797 6.47502 27.8814 6.19657 27.7138 5.96024C27.5461 5.72392 27.3158 5.53912 27.0488 5.42667L14.6065 0.123155C14.4147 0.0418807 14.2084 0 14 0C13.7916 0 13.5853 0.0418807 13.3934 0.123155L0.951166 5.42667C0.684137 5.53912 0.453829 5.72392 0.286202 5.96024C0.118576 6.19657 0.0202966 6.47502 0.0024437 6.76421C-0.0128386 7.05128 0.0517432 7.33697 0.189018 7.58956C0.326292 7.84214 0.530887 8.05174 0.780085 8.19507L4.29502 10.2169L0.951166 11.6478C0.684137 11.7602 0.453829 11.945 0.286202 12.1814C0.118576 12.4177 0.0202966 12.6962 0.0024437 12.9853C-0.0128386 13.2724 0.0517432 13.5581 0.189018 13.8107C0.326292 14.0633 0.530887 14.2729 0.780085 14.4162L4.29502 16.4381L0.951166 17.8689C0.684137 17.9814 0.453829 18.1662 0.286202 18.4025C0.118576 18.6388 0.0202966 18.9173 0.0024437 19.2065C-0.0128386 19.4935 0.0517432 19.7792 0.189018 20.0318C0.326292 20.2844 0.530887 20.494 0.780085 20.6373L13.2223 27.7916C13.4588 27.9281 13.727 28 14 28C14.273 28 14.5412 27.9281 14.7776 27.7916L27.2199 20.6373C27.4691 20.494 27.6737 20.2844 27.811 20.0318C27.9482 19.7792 28.0128 19.4935 27.9975 19.2065C27.9797 18.9173 27.8814 18.6388 27.7138 18.4025C27.5461 18.1662 27.3158 17.9814 27.0488 17.8689L23.7049 16.4381L27.2199 14.4162C27.4691 14.2729 27.6737 14.0633 27.811 13.8107C27.9482 13.5581 28.0128 13.2724 27.9975 12.9853ZM14 3.24927L22.9584 7.05971L14 12.2077L5.04156 7.05971L14 3.24927ZM13.2223 15.3494C13.4588 15.4859 13.727 15.5577 14 15.5577C14.273 15.5577 14.5412 15.4859 14.7776 15.3494L20.33 12.2388L22.9584 13.3586L14 18.4288L5.04156 13.2808L7.66999 12.161L13.2223 15.3494ZM22.9584 19.502L14 24.65L5.04156 19.502L7.66999 18.3822L13.2223 21.5705C13.4588 21.707 13.727 21.7789 14 21.7789C14.273 21.7789 14.5412 21.707 14.7776 21.5705L20.33 18.3822L22.9584 19.502Z" fill="#575757"/>
</svg>
