<svg width="24" height="28" viewBox="0 0 24 28" fill="none" xmlns="http://www.w3.org/2000/svg">
<path d="M9.89998 4.9C9.89998 7.36854 8.07459 9.41072 5.69998 9.75038V13.3H14.45C16.1896 13.3 17.6 11.8896 17.6 10.15V9.59708C15.576 8.99471 14.1 7.11971 14.1 4.9C14.1 2.1938 16.2938 0 19 0C21.7062 0 23.9 2.1938 23.9 4.9C23.9 7.36854 22.0745 9.41072 19.7 9.75038V10.15C19.7 13.0495 17.3495 15.4 14.45 15.4H5.69998V18.2496C8.07459 18.5893 9.89998 20.6315 9.89998 23.1C9.89998 25.8062 7.70618 28 4.99998 28C2.29378 28 0.0999756 25.8062 0.0999756 23.1C0.0999756 20.8803 1.57594 19.0053 3.59998 18.4029V9.59708C1.57594 8.99471 0.0999756 7.11971 0.0999756 4.9C0.0999756 2.1938 2.29378 0 4.99998 0C7.70618 0 9.89998 2.1938 9.89998 4.9ZM4.99998 7.7C6.54637 7.7 7.79998 6.4464 7.79998 4.9C7.79998 3.3536 6.54637 2.1 4.99998 2.1C3.45358 2.1 2.19998 3.3536 2.19998 4.9C2.19998 6.4464 3.45358 7.7 4.99998 7.7ZM19 7.7C20.5464 7.7 21.8 6.4464 21.8 4.9C21.8 3.3536 20.5464 2.1 19 2.1C17.4535 2.1 16.2 3.3536 16.2 4.9C16.2 6.4464 17.4535 7.7 19 7.7ZM7.79998 23.1C7.79998 21.5536 6.54637 20.3 4.99998 20.3C3.45358 20.3 2.19998 21.5536 2.19998 23.1C2.19998 24.6464 3.45358 25.9 4.99998 25.9C6.54637 25.9 7.79998 24.6464 7.79998 23.1Z" fill="#00B3FF"/>
</svg>
