<svg width="23" height="16" viewBox="0 0 23 16" fill="none" xmlns="http://www.w3.org/2000/svg">
<path d="M13.5869 13.913C14.1632 13.913 14.6304 14.3802 14.6304 14.9565C14.6304 15.5328 14.1632 16 13.5869 16H9.41303C8.83675 16 8.36955 15.5328 8.36955 14.9565C8.36955 14.3802 8.83675 13.913 9.41303 13.913H13.5869ZM17.7609 6.95652C18.3371 6.95652 18.8043 7.42372 18.8043 8C18.8043 8.57628 18.3371 9.04348 17.7609 9.04348H5.23912C4.66283 9.04348 4.19564 8.57628 4.19564 8C4.19564 7.42372 4.66283 6.95652 5.23912 6.95652H17.7609ZM21.9348 0C22.5111 0 22.9783 0.467186 22.9783 1.04348C22.9783 1.61977 22.5111 2.08696 21.9348 2.08696H1.06521C0.488915 2.08696 0.0217285 1.61977 0.0217285 1.04348C0.0217285 0.467186 0.488915 0 1.06521 0H21.9348Z" fill="#575757"/>
</svg>
