<svg width="15" height="17" viewBox="0 0 15 17" fill="none" xmlns="http://www.w3.org/2000/svg">
<path d="M13.9998 15.7217C14.414 15.7216 14.75 16.007 14.75 16.3591C14.75 16.7112 14.4144 16.9967 14.0002 16.9968L1.00022 17C0.586 17.0001 0.25 16.7147 0.25 16.3626C0.25 16.0105 0.58557 15.725 0.99978 15.7249L13.9998 15.7217ZM7.3982 0.00582284L7.5 0C7.8797 0 8.1935 0.239841 8.2432 0.551027L8.25 0.637537L8.249 12.2705L11.9708 9.10797C12.2371 8.88169 12.6538 8.86112 12.9474 9.04634L13.0315 9.10806C13.2977 9.33442 13.3219 9.68864 13.104 9.93822L13.0314 10.0097L8.0337 14.2571C7.7676 14.4833 7.3512 14.5039 7.0576 14.3189L6.9735 14.2573L1.97003 10.01C1.67694 9.76115 1.67661 9.35746 1.96931 9.10831C2.23539 8.88186 2.65204 8.86103 2.9458 9.04609L3.02997 9.10772L6.749 12.2645L6.75 0.637537C6.75 0.314773 7.0322 0.0480363 7.3982 0.00582284Z" fill="#00B3FF"/>
</svg>
