<svg width="22" height="21" viewBox="0 0 22 21" fill="none" xmlns="http://www.w3.org/2000/svg">
<path d="M10.9963 1C11.4086 1 11.7494 1.30619 11.8034 1.70366L11.8108 1.81416L11.8121 9.68606H19.6873C20.137 9.68606 20.5016 10.0507 20.5016 10.5004C20.5016 10.9126 20.1952 11.2534 19.7978 11.3073L19.6873 11.3147H11.8121L11.8143 19.1855C11.8144 19.6352 11.4499 20 11.0002 20C10.588 20 10.2471 19.6938 10.1932 19.2963L10.1857 19.1858L10.1835 11.3147H2.31285C1.86311 11.3147 1.49854 10.9501 1.49854 10.5004C1.49854 10.0881 1.80488 9.74741 2.20236 9.69344L2.31285 9.68606H10.1835L10.1822 1.81448C10.1821 1.36475 10.5466 1 10.9963 1Z" fill="white" stroke="white" stroke-width="1.5"/>
</svg>
