<svg width="38" height="41" viewBox="0 0 38 41" fill="none" xmlns="http://www.w3.org/2000/svg">
<path d="M18.9999 0.5C8.57343 0.5 0.714233 3.57143 0.714233 7.64286V33.3571C0.714233 37.4286 8.57343 40.5 18.9999 40.5C29.4265 40.5 37.2857 37.4286 37.2857 33.3571V7.64286C37.2857 3.57143 29.4265 0.5 18.9999 0.5ZM18.9999 3.35714C27.927 3.35714 33.6285 5.89429 33.6285 7.64286C33.6285 9.39143 27.927 11.9286 18.9999 11.9286C10.0729 11.9286 4.37138 9.39143 4.37138 7.64286C4.37138 5.89429 10.0692 3.35714 18.9999 3.35714ZM18.9999 37.6429C10.0692 37.6429 4.37138 35.1029 4.37138 33.3571V24.8914C7.65183 26.5857 12.8852 27.6429 18.9999 27.6429C25.1147 27.6429 30.3481 26.5857 33.6285 24.8914V33.3571C33.6285 35.1029 27.927 37.6429 18.9999 37.6429ZM18.9999 24.7857C10.0692 24.7857 4.37138 22.2486 4.37138 20.5V11.9886C8.81115 13.9829 13.8836 14.9514 18.9999 14.7857C24.1163 14.9514 29.1887 13.9829 33.6285 11.9886V20.5C33.6285 22.2486 27.9307 24.7857 18.9999 24.7857Z" fill="#575757"/>
</svg>
