<svg width="23" height="18" viewBox="0 0 23 18" fill="none" xmlns="http://www.w3.org/2000/svg">
<path d="M3.65625 0H18.8438C20.7934 0 22.3866 1.52601 22.4943 3.44878L22.5 3.65625V14.3438C22.5 16.2934 20.9739 17.8866 19.0512 17.9943L18.8438 18H3.65625C1.70659 18 0.113344 16.4739 0.00578257 14.5512L0 14.3438V3.65625C0 1.70659 1.52601 0.113344 3.44878 0.00578231L3.65625 0ZM20.8125 6.04463L11.643 10.8717C11.4321 10.9826 11.186 10.9985 10.9652 10.9193L10.857 10.8717L1.6875 6.04575V14.3438C1.6875 15.3767 2.483 16.2239 3.49478 16.306L3.65625 16.3125H18.8438C19.8767 16.3125 20.7239 15.517 20.806 14.5052L20.8125 14.3438V6.04463ZM18.8438 1.6875H3.65625C2.62331 1.6875 1.77616 2.483 1.69403 3.49478L1.6875 3.65625V4.13888L11.25 9.17156L20.8125 4.13775V3.65625C20.8125 2.62331 20.017 1.77616 19.0052 1.69402L18.8438 1.6875Z" fill="#212121"/>
</svg>
