<svg width="29" height="28" viewBox="0 0 29 28" fill="none" xmlns="http://www.w3.org/2000/svg">
<path d="M7.79776 1.4086C8.96263 0.501781 10.4865 0 12.001 0C12.9064 0 13.6398 0.311092 14.1953 0.805211C14.3455 0.938934 14.4791 1.08256 14.5977 1.23173C14.7164 1.08256 14.8499 0.938934 15.0001 0.805211C15.5555 0.311092 16.2889 0 17.1943 0C18.7089 0 20.2328 0.501781 21.3976 1.4086C22.3039 2.11411 23.0143 3.08663 23.2926 4.26301C23.8812 4.3603 24.4041 4.66028 24.8269 5.0571C25.5004 5.68902 25.9793 6.60194 26.2808 7.54155C26.587 8.49533 26.7403 9.56752 26.694 10.5967C26.6704 11.1236 26.5932 11.6606 26.4454 12.1748C26.4762 12.1881 26.5069 12.202 26.5374 12.2163C27.056 12.4608 27.4751 12.8436 27.7903 13.3517C28.3858 14.3107 28.5953 15.6926 28.5953 17.4531C28.5953 19.4764 27.822 20.8504 26.8272 21.7036C26.25 22.1988 25.613 22.5057 25.0489 22.6696C24.8535 23.6397 24.3648 24.7329 23.6215 25.663C22.6091 26.9296 21.0354 28 18.9194 28C17.2242 28 15.8897 27.0625 15.0325 26.1637C14.8758 25.9993 14.7305 25.8319 14.5977 25.6653C14.4648 25.8319 14.3197 25.9993 14.1628 26.1637C13.3056 27.0625 11.9712 28 10.276 28C8.15998 28 6.58637 26.9296 5.57395 25.663C4.83054 24.7329 4.34188 23.6397 4.14649 22.6696C3.58243 22.5057 2.94539 22.1988 2.36822 21.7036C1.37347 20.8504 0.600098 19.4764 0.600098 17.4531C0.600098 15.6926 0.809584 14.3107 1.40503 13.3517C1.72038 12.8436 2.13951 12.4608 2.65797 12.2163C2.68852 12.202 2.71919 12.1881 2.74999 12.1748C2.60222 11.6606 2.52511 11.1236 2.50143 10.5967C2.45518 9.56752 2.60837 8.49533 2.91452 7.54155C3.21613 6.60194 3.69501 5.68902 4.36843 5.0571C4.79129 4.66028 5.31429 4.3603 5.90281 4.26301C6.18115 3.08663 6.89148 2.11411 7.79776 1.4086ZM9.08838 3.06649C8.32394 3.66158 7.87633 4.45431 7.87633 5.367C7.87633 5.70473 7.71396 6.02187 7.43994 6.2193C7.16594 6.41674 6.81373 6.4704 6.49335 6.36352C6.30089 6.29931 6.09835 6.31497 5.80612 6.58919C5.48222 6.89313 5.15249 7.44384 4.91502 8.18368C4.68208 8.90936 4.56573 9.73244 4.60034 10.5024C4.63538 11.282 4.82076 11.9277 5.11253 12.3657C5.16135 12.4391 5.20011 12.5171 5.2287 12.5979H6.74436C8.85122 12.5979 10.5768 14.2302 10.7259 16.299C11.7582 16.7119 12.4875 17.7212 12.4875 18.901C12.4875 20.4482 11.2332 21.7024 9.68608 21.7024C8.13893 21.7024 6.88471 20.4482 6.88471 18.901C6.88471 17.7333 7.59924 16.7323 8.61496 16.3117C8.48043 15.3993 7.69418 14.699 6.74436 14.699H3.10259C3.09081 14.699 3.07908 14.6988 3.0674 14.6984C2.85832 15.1858 2.70112 16.0282 2.70112 17.4531C2.70112 18.8831 3.22156 19.6675 3.73624 20.1091C4.30104 20.5936 4.92109 20.7191 5.10075 20.7191C5.68094 20.7191 6.15126 21.1895 6.15126 21.7696C6.15126 22.3566 6.47594 23.4263 7.21515 24.3512C7.9278 25.2428 8.9418 25.899 10.276 25.899C11.1683 25.899 11.9902 25.3975 12.6424 24.7137C12.9601 24.3806 13.2067 24.0347 13.3685 23.754C13.4496 23.6133 13.502 23.5018 13.5308 23.4279L13.5381 23.4088V19.9696C13.538 19.9636 13.538 19.9576 13.538 19.9515C13.538 19.9455 13.538 19.9395 13.5381 19.9335V10.1467H12.2838C11.8682 11.1734 10.8617 11.8976 9.68608 11.8976C8.13893 11.8976 6.88471 10.6434 6.88471 9.09623C6.88471 7.54908 8.13893 6.29487 9.68608 6.29487C10.8617 6.29487 11.8682 7.01908 12.2838 8.04571H13.5381V4.50704L13.5378 4.49115C13.5374 4.47516 13.5366 4.44805 13.5346 4.41148C13.5307 4.33801 13.5224 4.2281 13.5058 4.09432C13.4717 3.82132 13.4052 3.47601 13.2815 3.14568C13.156 2.81096 12.9928 2.54761 12.7987 2.37493C12.6264 2.22158 12.3894 2.10103 12.001 2.10103C10.9279 2.10103 9.8642 2.46254 9.08838 3.06649ZM15.6573 21.002V23.4088L15.6645 23.4279C15.6935 23.5018 15.7459 23.6133 15.8268 23.754C15.9886 24.0347 16.2353 24.3806 16.5529 24.7137C17.2052 25.3975 18.0272 25.899 18.9194 25.899C20.2535 25.899 21.2676 25.2428 21.9803 24.3512C22.7195 23.4263 23.0441 22.3566 23.0441 21.7696C23.0441 21.1895 23.5145 20.7191 24.0946 20.7191C24.2744 20.7191 24.8943 20.5936 25.4592 20.1091C25.9738 19.6675 26.4943 18.8831 26.4943 17.4531C26.4943 15.7605 26.2724 14.89 26.0055 14.4599C25.8895 14.2732 25.7696 14.1771 25.6411 14.1166C25.499 14.0495 25.2866 13.9986 24.9572 13.9986C24.5699 13.9986 24.214 13.7854 24.0311 13.444C23.8483 13.1025 23.8682 12.6881 24.0829 12.3657C24.3746 11.9277 24.5601 11.282 24.5951 10.5024C24.6297 9.73244 24.5133 8.90936 24.2804 8.18368C24.043 7.44384 23.7132 6.89313 23.3893 6.58919C23.0971 6.31497 22.8945 6.29931 22.7021 6.36352C22.3818 6.4704 22.0295 6.41674 21.7555 6.2193C21.4814 6.02187 21.3191 5.70473 21.3191 5.367C21.3191 4.45431 20.8714 3.66158 20.107 3.06649C19.3312 2.46254 18.2675 2.10103 17.1943 2.10103C16.806 2.10103 16.5691 2.22158 16.3966 2.37493C16.2026 2.54761 16.0393 2.81096 15.914 3.14568C15.7903 3.47601 15.7237 3.82132 15.6896 4.09432C15.6729 4.2281 15.6648 4.33801 15.6608 4.41148C15.6589 4.44805 15.658 4.47516 15.6576 4.49115L15.6573 4.50704V18.901H16.5494C17.5938 18.901 18.4404 18.0544 18.4404 17.0101V14.4953C17.4137 14.0797 16.6895 13.0732 16.6895 11.8976C16.6895 10.3504 17.9437 9.09623 19.4909 9.09623C21.0381 9.09623 22.2922 10.3504 22.2922 11.8976C22.2922 13.0732 21.568 14.0797 20.5414 14.4953V17.0101C20.5414 19.2148 18.7541 21.002 16.5494 21.002H15.6573ZM9.68608 8.39589C9.2993 8.39589 8.98574 8.70945 8.98574 9.09623C8.98574 9.48302 9.2993 9.79658 9.68608 9.79658C10.0729 9.79658 10.3864 9.48302 10.3864 9.09623C10.3864 8.70945 10.0729 8.39589 9.68608 8.39589ZM8.98574 18.901C8.98574 19.2877 9.2993 19.6014 9.68608 19.6014C10.0729 19.6014 10.3864 19.2877 10.3864 18.901C10.3864 18.5143 10.0729 18.2007 9.68608 18.2007C9.2993 18.2007 8.98574 18.5143 8.98574 18.901ZM18.7905 11.8976C18.7905 12.2843 19.104 12.5979 19.4909 12.5979C19.8776 12.5979 20.1912 12.2843 20.1912 11.8976C20.1912 11.5109 19.8776 11.1973 19.4909 11.1973C19.104 11.1973 18.7905 11.5109 18.7905 11.8976Z" fill="black"/>
</svg>
