<svg width="22" height="22" viewBox="0 0 22 22" fill="none" xmlns="http://www.w3.org/2000/svg">
<path d="M11 0C17.0751 0 22 4.92487 22 11C22 17.0751 17.0751 22 11 22C4.92487 22 0 17.0751 0 11C0 4.92487 4.92487 0 11 0ZM11 1.65C5.83614 1.65 1.65 5.83614 1.65 11C1.65 16.1638 5.83614 20.35 11 20.35C16.1639 20.35 20.35 16.1638 20.35 11C20.35 5.83614 16.1639 1.65 11 1.65ZM10.6117 6.10839L10.6916 6.01587C10.9845 5.72297 11.4429 5.69634 11.7658 5.93599L11.8584 6.01587L16.2592 10.4168C16.5522 10.7097 16.5788 11.1681 16.3391 11.491L16.2591 11.5837L11.8575 15.9837C11.5353 16.3057 11.0129 16.3056 10.6907 15.9833C10.3979 15.6904 10.3714 15.2321 10.6111 14.9092L10.6909 14.8167L13.6851 11.8239L6.32422 11.8242C5.90656 11.8242 5.56138 11.5138 5.50675 11.1112L5.49922 10.9992C5.49922 10.5816 5.8096 10.2364 6.21227 10.1817L6.32422 10.1742L13.6829 10.1739L10.6916 7.18259C10.3988 6.8897 10.3721 6.43137 10.6117 6.10839Z" fill="#212121"/>
</svg>
