<svg width="34" height="41" viewBox="0 0 34 41" fill="none" xmlns="http://www.w3.org/2000/svg">
<path d="M14 7.5C14 11.0265 11.3923 13.9439 8 14.4291V19.5H20.5C22.9852 19.5 25 17.4852 25 15V14.2101C22.1086 13.3496 20 10.671 20 7.5C20 3.634 23.134 0.5 27 0.5C30.866 0.5 34 3.634 34 7.5C34 11.0265 31.3922 13.9439 28 14.4291V15C28 19.1422 24.6422 22.5 20.5 22.5H8V26.5708C11.3923 27.0562 14 29.9736 14 33.5C14 37.366 10.866 40.5 7 40.5C3.134 40.5 0 37.366 0 33.5C0 30.329 2.10852 27.6504 5 26.7898V14.2101C2.10852 13.3496 0 10.671 0 7.5C0 3.634 3.134 0.5 7 0.5C10.866 0.5 14 3.634 14 7.5ZM7 11.5C9.20914 11.5 11 9.70914 11 7.5C11 5.29086 9.20914 3.5 7 3.5C4.79086 3.5 3 5.29086 3 7.5C3 9.70914 4.79086 11.5 7 11.5ZM27 11.5C29.2092 11.5 31 9.70914 31 7.5C31 5.29086 29.2092 3.5 27 3.5C24.7908 3.5 23 5.29086 23 7.5C23 9.70914 24.7908 11.5 27 11.5ZM11 33.5C11 31.2908 9.20914 29.5 7 29.5C4.79086 29.5 3 31.2908 3 33.5C3 35.7092 4.79086 37.5 7 37.5C9.20914 37.5 11 35.7092 11 33.5Z" fill="#575757"/>
</svg>
