<svg width="40" height="41" viewBox="0 0 40 41" fill="none" xmlns="http://www.w3.org/2000/svg">
<path d="M12.4286 6.97383C12.3956 6.72533 12.3786 6.47181 12.3786 6.21429C12.3786 3.05838 14.9369 0.5 18.0929 0.5C21.2489 0.5 23.8072 3.05838 23.8072 6.21429C23.8072 6.47185 23.7902 6.72543 23.7571 6.97396L29.2361 4.64827C31.4134 3.724 33.9369 4.73276 34.8769 6.90337C35.8203 9.08145 34.8123 11.603 32.6273 12.5305L25.7167 15.4638V17.973C24.7115 18.2099 23.7536 18.5695 22.8595 19.0349V15.1487C22.8595 14.1932 23.4308 13.3303 24.3102 12.957L31.511 9.90044C32.2359 9.59274 32.5681 8.76156 32.2551 8.03893C31.939 7.30884 31.0849 6.96739 30.3525 7.27827L20.8839 11.2974C20.5801 11.4264 20.2696 11.5334 19.9546 11.6184C19.371 11.8194 18.7447 11.9286 18.0929 11.9286C17.4407 11.9286 16.814 11.8193 16.2302 11.6181C15.9155 11.5331 15.6054 11.4262 15.302 11.2974L5.83353 7.27827C5.10113 6.96739 4.24708 7.30884 3.93085 8.03893C3.61786 8.76156 3.95016 9.59274 4.67504 9.90044L11.8851 12.9609C12.7646 13.3342 13.3357 14.1972 13.3357 15.1526V22.5979C13.3357 22.8617 13.2919 23.1236 13.206 23.373L9.60108 33.8425C9.34422 34.5886 9.74073 35.4015 10.4867 35.6583C11.2327 35.9152 12.0457 35.5187 12.3026 34.7728L16.3184 23.1099C16.7403 21.8836 18.1113 21.5497 19.0544 22.1008C17.2645 24.2478 16.1877 27.0101 16.1877 30.0238C16.1877 30.6509 16.2344 31.2669 16.3243 31.8688L15.0041 35.7029C14.2334 37.941 11.7945 39.1305 9.55652 38.3598C7.31854 37.5893 6.129 35.1503 6.89959 32.9124L10.4786 22.5181V15.4678L3.55868 12.5305C1.37374 11.603 0.365666 9.08145 1.30906 6.90337C2.24921 4.73276 4.7725 3.724 6.94991 4.64827L12.4286 6.97383ZM15.2357 6.21429C15.2357 7.43556 16.002 8.47787 17.0799 8.88667C17.7452 9.04851 18.4399 9.04859 19.1052 8.88686C20.1835 8.47819 20.95 7.43575 20.95 6.21429C20.95 4.63632 19.6708 3.35714 18.0929 3.35714C16.515 3.35714 15.2357 4.63632 15.2357 6.21429ZM39.0449 30.0238C39.0449 35.8097 34.3546 40.5 28.5687 40.5C22.7828 40.5 18.0925 35.8097 18.0925 30.0238C18.0925 24.2379 22.7828 19.5476 28.5687 19.5476C34.3546 19.5476 39.0449 24.2379 39.0449 30.0238ZM34.9565 25.5408C34.5845 25.169 33.9814 25.169 33.6094 25.5408L26.6639 32.4865L23.5279 29.3503C23.1559 28.9785 22.5529 28.9785 22.1809 29.3503C21.8091 29.7223 21.8091 30.3253 22.1809 30.6973L25.9904 34.5069C26.3624 34.8787 26.9654 34.8787 27.3374 34.5069L34.9565 26.8878C35.3283 26.5158 35.3283 25.9128 34.9565 25.5408Z" fill="#575757"/>
</svg>
