<svg width="26" height="28" viewBox="0 0 26 28" fill="none" xmlns="http://www.w3.org/2000/svg">
<path d="M12.8933 0C18.707 0 23.4539 4.58608 23.6536 10.4061L23.6596 10.7663V16.6476L25.6406 21.178C25.7398 21.4047 25.7909 21.6495 25.7909 21.8969C25.7909 22.8879 24.9876 23.6913 23.9966 23.6913L17.1999 23.6935C17.1999 26.0718 15.2718 28 12.8933 28C10.5998 28 8.72513 26.2071 8.59414 23.9464L8.58619 23.6902L1.80388 23.6913C1.55792 23.6913 1.31459 23.6407 1.08899 23.5428C0.180022 23.1478 -0.236777 22.091 0.158045 21.1821L2.12706 16.6489V10.7662C2.12792 4.80193 6.93901 0 12.8933 0ZM15.046 23.6902L10.7401 23.6935C10.7401 24.8827 11.7042 25.8467 12.8933 25.8467C14.0126 25.8467 14.9325 24.9928 15.0367 23.9008L15.046 23.6902ZM12.8933 2.15326C8.12725 2.15326 4.28101 5.99218 4.28032 10.7663V17.0963L2.35102 21.5381H23.4479L21.5064 17.0978L21.5065 10.7848L21.5012 10.4615C21.3417 5.8198 17.5467 2.15326 12.8933 2.15326Z" fill="#212121"/>
</svg>
