<svg width="28" height="28" viewBox="0 0 28 28" fill="none" xmlns="http://www.w3.org/2000/svg">
<path d="M14 0C21.7322 0 28 6.2692 28 14C28 21.7308 21.7322 28 14 28C6.2678 28 0 21.7308 0 14C0 6.2692 6.2678 0 14 0ZM14 2.3338C7.567 2.3338 2.3338 7.567 2.3338 14C2.3338 20.433 7.567 25.6662 14 25.6662C20.433 25.6662 25.6662 20.433 25.6662 14C25.6662 7.567 20.433 2.3338 14 2.3338ZM14 18.9C14.7732 18.9 15.4 19.5268 15.4 20.3C15.4 21.0732 14.7732 21.7 14 21.7C13.2268 21.7 12.6 21.0732 12.6 20.3C12.6 19.5268 13.2268 18.9 14 18.9ZM14 6.65C16.1263 6.65 17.85 8.37371 17.85 10.5C17.85 11.9151 17.4335 12.7036 16.3785 13.802L16.1424 14.0424C15.2718 14.9131 15.05 15.2828 15.05 16.1C15.05 16.6799 14.5799 17.15 14 17.15C13.4201 17.15 12.95 16.6799 12.95 16.1C12.95 14.6849 13.3665 13.8964 14.4215 12.798L14.6576 12.5576C15.5282 11.6869 15.75 11.3172 15.75 10.5C15.75 9.5335 14.9666 8.75 14 8.75C13.0939 8.75 12.3487 9.43862 12.2591 10.3211L12.25 10.5C12.25 11.0799 11.7799 11.55 11.2 11.55C10.6201 11.55 10.15 11.0799 10.15 10.5C10.15 8.37371 11.8737 6.65 14 6.65Z" fill="#575757"/>
</svg>
