<svg width="28" height="28" viewBox="0 0 28 28" fill="none" xmlns="http://www.w3.org/2000/svg">
<path d="M14.0153 0C15.0693 0.0121477 16.1191 0.133912 17.1478 0.36334C17.5968 0.463495 17.9326 0.837862 17.9836 1.29513L18.228 3.48753C18.3387 4.49417 19.1886 5.2566 20.2018 5.25767C20.4742 5.2581 20.7435 5.20138 20.9953 5.09002L23.0064 4.20656C23.4247 4.02281 23.9134 4.12299 24.2256 4.45649C25.679 6.00873 26.7614 7.87039 27.3915 9.90137C27.5273 10.3393 27.3709 10.8153 27.0019 11.0873L25.2192 12.4013C24.7106 12.7749 24.4104 13.3682 24.4104 13.9993C24.4104 14.6303 24.7107 15.2236 25.2204 15.598L27.0045 16.9125C27.3737 17.1844 27.5302 17.6604 27.3944 18.0985C26.7646 20.1292 25.6828 21.9907 24.2302 23.5432C23.9183 23.8766 23.43 23.9771 23.0117 23.7937L20.9924 22.9091C20.4146 22.6562 19.7512 22.6933 19.2051 23.0089C18.6592 23.3243 18.2959 23.8808 18.2265 24.5075L17.9837 26.6997C17.9336 27.1517 17.6051 27.5236 17.1625 27.6289C15.0828 28.1237 12.9159 28.1237 10.836 27.6289C10.3936 27.5236 10.065 27.1517 10.0149 26.6997L9.77248 24.5108C9.70128 23.8852 9.33738 23.3305 8.79185 23.0161C8.24634 22.7016 7.58394 22.6647 7.00814 22.9161L4.98836 23.8009C4.57001 23.9843 4.08153 23.8838 3.76958 23.5501C2.31622 21.9958 1.23437 20.1321 0.60546 18.0992C0.469997 17.6614 0.62651 17.1857 0.995523 16.9139L2.78082 15.5986C3.28933 15.225 3.58965 14.6317 3.58965 14.0008C3.58965 13.3697 3.28933 12.7764 2.78015 12.4023L0.995968 11.0892C0.626424 10.8173 0.469767 10.341 0.605704 9.90281C1.23571 7.87182 2.31812 6.01016 3.77152 4.45793C4.08377 4.12442 4.57248 4.02424 4.99076 4.20799L7.00157 5.0913C7.58015 5.34523 8.24532 5.30688 8.79379 4.98644C9.33989 4.66968 9.70346 4.11274 9.77365 3.48585L10.0178 1.29513C10.0689 0.837633 10.405 0.463135 10.8543 0.363197C11.8843 0.134142 12.9353 0.0124205 14.0153 0ZM14.0156 2.15371C13.3636 2.16138 12.7136 2.21765 12.0706 2.32188L11.9142 3.72499C11.768 5.03094 11.0112 6.1902 9.87739 6.84786C8.73664 7.51431 7.34581 7.59452 6.13566 7.06344L4.84581 6.49682C4.02457 7.49358 3.37092 8.61734 2.91054 9.82397L4.0561 10.667C5.11696 11.4464 5.7435 12.6843 5.7435 14.0008C5.7435 15.317 5.11696 16.5549 4.05722 17.3335L2.90987 18.1788C3.36984 19.3875 4.02359 20.5134 4.84539 21.5121L6.14507 20.9428C7.34849 20.4174 8.72985 20.4942 9.8675 21.15C11.0051 21.8057 11.764 22.9625 11.9129 24.2705L12.0694 25.6832C13.3468 25.9005 14.6519 25.9005 15.9293 25.6832L16.0858 24.2706C16.2305 22.9631 16.9885 21.8023 18.1275 21.1441C19.2664 20.4857 20.6506 20.4085 21.8562 20.9362L23.1548 21.5051C23.9759 20.508 24.6294 19.3839 25.0897 18.1771L23.9439 17.3329C22.883 16.5535 22.2565 15.3156 22.2565 13.9993C22.2565 12.6829 22.883 11.445 23.9426 10.6665L25.0869 9.82313C24.6265 8.61628 23.9727 7.4923 23.1514 6.49538L21.8641 7.06086C21.3396 7.29296 20.7721 7.41241 20.199 7.41152C18.0887 7.40931 16.3175 5.8205 16.0872 3.72448L15.9308 2.32142C15.2911 2.21732 14.6477 2.1612 14.0156 2.15371ZM13.9974 8.61534C16.9713 8.61534 19.382 11.0261 19.382 14C19.382 16.9738 16.9713 19.3847 13.9974 19.3847C11.0235 19.3847 8.61276 16.9738 8.61276 14C8.61276 11.0261 11.0235 8.61534 13.9974 8.61534ZM13.9974 10.7692C12.2131 10.7692 10.7666 12.2156 10.7666 14C10.7666 15.7843 12.2131 17.2308 13.9974 17.2308C15.7816 17.2308 17.2282 15.7843 17.2282 14C17.2282 12.2156 15.7816 10.7692 13.9974 10.7692Z" fill="#575757"/>
</svg>
