<svg width="26" height="28" viewBox="0 0 26 28" fill="none" xmlns="http://www.w3.org/2000/svg">
<path d="M13.0002 0C5.70164 0 0.200195 2.15 0.200195 5V23C0.200195 25.85 5.70164 28 13.0002 28C20.2988 28 25.8002 25.85 25.8002 23V5C25.8002 2.15 20.2988 0 13.0002 0ZM13.0002 2C19.2492 2 23.2402 3.776 23.2402 5C23.2402 6.224 19.2492 8 13.0002 8C6.75124 8 2.7602 6.224 2.7602 5C2.7602 3.776 6.74868 2 13.0002 2ZM13.0002 26C6.74868 26 2.7602 24.222 2.7602 23V17.074C5.05652 18.26 8.71988 19 13.0002 19C17.2805 19 20.9439 18.26 23.2402 17.074V23C23.2402 24.222 19.2492 26 13.0002 26ZM13.0002 17C6.74868 17 2.7602 15.224 2.7602 14V8.042C5.86804 9.438 9.41876 10.116 13.0002 10C16.5816 10.116 20.1324 9.438 23.2402 8.042V14C23.2402 15.224 19.2517 17 13.0002 17Z" fill="#00B3FF"/>
</svg>
