<svg width="18" height="18" viewBox="0 0 18 18" fill="none" xmlns="http://www.w3.org/2000/svg">
<path d="M8.99667 0.5C9.36553 0.5 9.67048 0.773964 9.71876 1.12959L9.72546 1.22845L9.72663 8.27174H16.7728C17.1752 8.27174 17.5014 8.59796 17.5014 9.00034C17.5014 9.36921 17.2272 9.67405 16.8717 9.72233L16.7728 9.72894H9.72663L9.72857 16.7712C9.72867 17.1736 9.40254 17.5 9.00016 17.5C8.6313 17.5 8.32635 17.226 8.27807 16.8704L8.27137 16.7715L8.26942 9.72894H1.22726C0.824857 9.72894 0.498657 9.40272 0.498657 9.00034C0.498657 8.63147 0.772757 8.32663 1.12839 8.27835L1.22726 8.27174H8.26942L8.26826 1.22875C8.26816 0.826355 8.59428 0.5 8.99667 0.5Z" fill="#00B3FF" stroke="#00B3FF"/>
</svg>
