<svg width="29" height="20" viewBox="0 0 29 20" fill="none" xmlns="http://www.w3.org/2000/svg">
<path d="M16.9565 17.3913C17.6769 17.3913 18.2609 17.9753 18.2609 18.6957C18.2609 19.416 17.6769 20 16.9565 20H11.7391C11.0188 20 10.4348 19.416 10.4348 18.6957C10.4348 17.9753 11.0188 17.3913 11.7391 17.3913H16.9565ZM22.1739 8.69565C22.8943 8.69565 23.4783 9.27965 23.4783 10C23.4783 10.7203 22.8943 11.3043 22.1739 11.3043H6.52174C5.80137 11.3043 5.21739 10.7203 5.21739 10C5.21739 9.27965 5.80137 8.69565 6.52174 8.69565H22.1739ZM27.3913 0C28.1117 0 28.6957 0.583983 28.6957 1.30435C28.6957 2.02471 28.1117 2.6087 27.3913 2.6087H1.30435C0.583983 2.6087 0 2.02471 0 1.30435C0 0.583983 0.583983 0 1.30435 0H27.3913Z" fill="#575757"/>
</svg>
