<svg width="40" height="32" viewBox="0 0 40 32" fill="none" xmlns="http://www.w3.org/2000/svg">
<path d="M6.5 0H33.5C36.966 0 39.7984 2.7129 39.9898 6.13116L40 6.5V25.5C40 28.966 37.287 31.7984 33.8688 31.9898L33.5 32H6.5C3.03394 32 0.2015 29.287 0.0102801 25.8688L0 25.5V6.5C0 3.03394 2.7129 0.2015 6.13116 0.0102797L6.5 0ZM37 10.746L20.6986 19.3274C20.3238 19.5246 19.8862 19.5528 19.4936 19.412L19.3014 19.3274L3 10.748V25.5C3 27.3364 4.41422 28.8424 6.21294 28.9884L6.5 29H33.5C35.3364 29 36.8424 27.5858 36.9884 25.787L37 25.5V10.746ZM33.5 3H6.5C4.66366 3 3.15762 4.41422 3.0116 6.21294L3 6.5V7.358L20 16.305L37 7.356V6.5C37 4.66366 35.5858 3.15762 33.787 3.0116L33.5 3Z" fill="#575757"/>
</svg>
