<svg width="23" height="20" viewBox="0 0 23 20" fill="none" xmlns="http://www.w3.org/2000/svg">
<path d="M13.0053 0.745807C12.6491 0.406454 12.0851 0.420174 11.7457 0.77643C11.4064 1.1327 11.4202 1.6966 11.7764 2.03595L19.202 9.10902H1.70033C1.20831 9.10902 0.809448 9.50789 0.809448 9.9999C0.809448 10.4919 1.20831 10.8908 1.70033 10.8908H19.2021L11.7764 17.964C11.4202 18.3033 11.4064 18.8673 11.7457 19.2236C12.0851 19.5798 12.6491 19.5936 13.0053 19.2542L21.8178 10.8601C22.0184 10.669 22.1372 10.4251 22.174 10.1718C22.1848 10.1162 22.1905 10.0587 22.1905 9.9999C22.1905 9.9411 22.1848 9.88349 22.1739 9.82778C22.137 9.57453 22.0183 9.33091 21.8178 9.1399L13.0053 0.745807Z" fill="#00B3FF" stroke="#00B3FF"/>
</svg>
